<svg width="16" height="16" viewBox="0 0 16 16" fill="none" xmlns="http://www.w3.org/2000/svg">
<path d="M6.10281 3.60598C6.94747 2.09132 7.36947 1.33398 8.00081 1.33398C8.63214 1.33398 9.05414 2.09132 9.89881 3.60598L10.1175 3.99798C10.3575 4.42865 10.4775 4.64398 10.6641 4.78598C10.8508 4.92798 11.0841 4.98065 11.5508 5.08598L11.9748 5.18198C13.6148 5.55332 14.4341 5.73865 14.6295 6.36598C14.8241 6.99265 14.2655 7.64665 13.1475 8.95398L12.8581 9.29198C12.5408 9.66332 12.3815 9.84932 12.3101 10.0787C12.2388 10.3087 12.2628 10.5567 12.3108 11.052L12.3548 11.5033C12.5235 13.248 12.6081 14.12 12.0975 14.5073C11.5868 14.8947 10.8188 14.5413 9.28414 13.8347L8.88614 13.652C8.45014 13.4507 8.23214 13.3507 8.00081 13.3507C7.76947 13.3507 7.55147 13.4507 7.11547 13.652L6.71814 13.8347C5.18281 14.5413 4.41481 14.8947 3.90481 14.508C3.39347 14.12 3.47814 13.248 3.64681 11.5033L3.69081 11.0527C3.73881 10.5567 3.76281 10.3087 3.69081 10.0793C3.62014 9.84932 3.46081 9.66332 3.14347 9.29265L2.85414 8.95398C1.73614 7.64732 1.17747 6.99332 1.37214 6.36598C1.56681 5.73865 2.38747 5.55265 4.02747 5.18198L4.45147 5.08598C4.91747 4.98065 5.15014 4.92798 5.33747 4.78598C5.52481 4.64398 5.64414 4.42865 5.88414 3.99798L6.10281 3.60598Z" fill="#0DAEFF"/>
</svg>
