<svg width="32" height="32" viewBox="0 0 32 32" fill="none" xmlns="http://www.w3.org/2000/svg">
<circle cx="16" cy="16" r="15" fill="#A97467" stroke="white" stroke-width="2"/>
<path d="M21.5595 14C21.5595 13.5814 21.418 13.2252 21.1349 12.9321C20.8519 12.6389 20.5079 12.4922 20.1034 12.4922H19.6207V12.5H19.6129V15.5H19.6207V15.5078H20.1034C20.5079 15.5078 20.8519 15.3611 21.1349 15.0679C21.418 14.7748 21.5595 14.4186 21.5595 14ZM9.00783 20.0078H22.5094C22.5076 20.5545 22.3198 21.0213 21.9459 21.4086C21.5702 21.7978 21.1171 21.9922 20.5862 21.9922H10.931C10.4002 21.9922 9.94707 21.7978 9.57135 21.4086C9.19741 21.0213 9.0096 20.5545 9.00783 20.0078ZM22.9922 14C22.9922 14.8261 22.7101 15.5312 22.1458 16.1157C21.5815 16.7001 20.9009 16.9922 20.1034 16.9922H19.6207V17H19.6129V17.25C19.6129 17.7271 19.4477 18.1367 19.1172 18.4789C18.7867 18.8212 18.3915 18.9922 17.931 18.9922H12.6207C12.1602 18.9922 11.765 18.8212 11.4345 18.4789C11.104 18.1367 10.9388 17.7271 10.9388 17.25V11.5C10.9388 11.3666 10.9858 11.2514 11.08 11.1539C11.1741 11.0563 11.2853 11.0078 11.4138 11.0078H20.1034C20.9009 11.0078 21.5815 11.2999 22.1458 11.8843C22.7101 12.4688 22.9922 13.1739 22.9922 14Z" fill="white" stroke="white" stroke-width="0.015625"/>
</svg>
