<svg width="40" height="40" viewBox="0 0 40 40" fill="none" xmlns="http://www.w3.org/2000/svg">
<path d="M27.8118 4.27929C24.3436 4.86979 24.6516 10.5214 25.2554 13.328C25.2554 13.328 27.2905 14.3007 28.0268 15.8472C28.763 17.3936 35.7802 14.7204 35.7802 14.7204C35.7802 12.4963 34.4773 10.5226 31.5907 9.38683C28.6411 8.22633 28.4062 5.84196 28.0789 4.45733C28.0505 4.3369 27.9338 4.25852 27.8118 4.27929Z" fill="url(#paint0_linear_6736_65165)"/>
<path d="M12.1882 35.7185C15.6564 35.128 15.3484 29.4764 14.7446 26.6698C14.7446 26.6698 12.7095 25.6971 11.9732 24.1506C11.237 22.6042 4.21984 25.2774 4.21984 25.2774C4.21984 27.5015 5.52269 29.4753 8.40931 30.611C11.3589 31.7715 11.5938 34.1558 11.9211 35.5405C11.9495 35.6609 12.0662 35.7393 12.1882 35.7185Z" fill="url(#paint1_linear_6736_65165)"/>
<circle cx="19.9992" cy="19.999" r="9.70038" fill="url(#paint2_linear_6736_65165)"/>
<mask id="mask0_6736_65165" style="mask-type:alpha" maskUnits="userSpaceOnUse" x="10" y="10" width="20" height="20">
<circle cx="19.9992" cy="19.9999" r="9.70038" fill="#EF4452"/>
</mask>
<g mask="url(#mask0_6736_65165)">
<path d="M21.9981 22.5429C12.8729 23.563 10.5218 19.7787 9.47017 18.6893L10.6074 11.61C10.3784 13.0357 12.8729 17.6795 20.2535 16.9327C28.52 16.0964 31.9537 22.1608 32.6372 24.252L27.4121 32.2217C28.7317 29.1905 29.4645 21.7083 21.9981 22.5429Z" fill="url(#paint3_linear_6736_65165)"/>
</g>
<defs>
<linearGradient id="paint0_linear_6736_65165" x1="31.8153" y1="11.4366" x2="10.1596" y2="43.9201" gradientUnits="userSpaceOnUse">
<stop stop-color="#EF4452"/>
<stop offset="1" stop-color="#70CFFF"/>
</linearGradient>
<linearGradient id="paint1_linear_6736_65165" x1="11.06" y1="27.4467" x2="19.2426" y2="21.65" gradientUnits="userSpaceOnUse">
<stop stop-color="#EF4452"/>
<stop offset="1" stop-color="#BD303B"/>
</linearGradient>
<linearGradient id="paint2_linear_6736_65165" x1="19.9992" y1="10.2986" x2="19.9992" y2="65.2842" gradientUnits="userSpaceOnUse">
<stop offset="0.205796" stop-color="#EF4452"/>
<stop offset="0.831731" stop-color="#70CFFF"/>
</linearGradient>
<linearGradient id="paint3_linear_6736_65165" x1="22.0873" y1="16.4516" x2="20.9325" y2="89.4425" gradientUnits="userSpaceOnUse">
<stop stop-color="#FFD6D9"/>
<stop offset="0.928855" stop-color="#70CFFF"/>
</linearGradient>
</defs>
</svg>
