<svg width="36" height="36" viewBox="0 0 36 36" fill="none" xmlns="http://www.w3.org/2000/svg">
<circle cx="18" cy="18" r="18" fill="#F3F4F6"/>
<path d="M16.0294 10.3963C16.0554 10.0838 16.1979 9.79251 16.4286 9.58019C16.6594 9.36787 16.9615 9.25002 17.275 9.25H18.725C19.0385 9.25002 19.3406 9.36787 19.5714 9.58019C19.8021 9.79251 19.9446 10.0838 19.9706 10.3963L20.1175 12.1619C20.1223 12.219 20.1427 12.2738 20.1766 12.3201C20.2104 12.3664 20.2563 12.4025 20.3093 12.4244C20.3623 12.4464 20.4203 12.4533 20.477 12.4445C20.5337 12.4357 20.5868 12.4114 20.6306 12.3744L21.9831 11.23C22.2224 11.0274 22.5291 10.9222 22.8424 10.9352C23.1557 10.9481 23.4526 11.0784 23.6744 11.3L24.6994 12.325C24.9213 12.5467 25.0517 12.8437 25.0648 13.1572C25.0779 13.4706 24.9727 13.7774 24.77 14.0169L23.6263 15.3688C23.5891 15.4125 23.5646 15.4657 23.5557 15.5225C23.5468 15.5793 23.5537 15.6374 23.5757 15.6905C23.5976 15.7436 23.6338 15.7896 23.6802 15.8235C23.7266 15.8574 23.7815 15.8778 23.8387 15.8825L25.6038 16.0294C25.9162 16.0554 26.2075 16.1979 26.4198 16.4286C26.6321 16.6594 26.75 16.9615 26.75 17.275V18.725C26.75 19.0385 26.6321 19.3406 26.4198 19.5714C26.2075 19.8021 25.9162 19.9446 25.6038 19.9706L23.8381 20.1175C23.781 20.1223 23.7262 20.1427 23.6799 20.1766C23.6336 20.2104 23.5975 20.2563 23.5756 20.3093C23.5536 20.3623 23.5467 20.4203 23.5555 20.477C23.5643 20.5337 23.5886 20.5868 23.6256 20.6306L24.77 21.9831C24.9726 22.2224 25.0778 22.5291 25.0648 22.8424C25.0519 23.1557 24.9216 23.4526 24.7 23.6744L23.675 24.6994C23.4533 24.9213 23.1563 25.0517 22.8428 25.0648C22.5294 25.0779 22.2226 24.9727 21.9831 24.77L20.6306 23.6263C20.5868 23.5894 20.5337 23.5653 20.4771 23.5566C20.4206 23.5478 20.3627 23.5548 20.3098 23.5767C20.2569 23.5987 20.2111 23.6347 20.1773 23.6809C20.1435 23.7271 20.123 23.7817 20.1181 23.8387L19.9706 25.6038C19.9446 25.9162 19.8021 26.2075 19.5714 26.4198C19.3406 26.6321 19.0385 26.75 18.725 26.75H17.275C16.9615 26.75 16.6594 26.6321 16.4286 26.4198C16.1979 26.2075 16.0554 25.9162 16.0294 25.6038L15.8825 23.8381C15.8778 23.7809 15.8574 23.726 15.8235 23.6796C15.7896 23.6332 15.7436 23.597 15.6905 23.575C15.6374 23.5531 15.5793 23.5462 15.5225 23.5551C15.4657 23.564 15.4125 23.5884 15.3688 23.6256L14.0169 24.77C13.7776 24.9726 13.4709 25.0778 13.1576 25.0648C12.8443 25.0519 12.5474 24.9216 12.3256 24.7L11.3006 23.675C11.0787 23.4533 10.9483 23.1563 10.9352 22.8428C10.9221 22.5294 11.0273 22.2226 11.23 21.9831L12.3738 20.6306C12.4106 20.5868 12.4347 20.5337 12.4434 20.4771C12.4522 20.4206 12.4452 20.3627 12.4233 20.3098C12.4013 20.2569 12.3653 20.2111 12.3191 20.1773C12.2729 20.1435 12.2183 20.123 12.1613 20.1181L10.3963 19.9706C10.0838 19.9446 9.79251 19.8021 9.58019 19.5714C9.36787 19.3406 9.25002 19.0385 9.25 18.725V17.275C9.25002 16.9615 9.36787 16.6594 9.58019 16.4286C9.79251 16.1979 10.0838 16.0554 10.3963 16.0294L12.1619 15.8825C12.2191 15.8778 12.274 15.8574 12.3204 15.8235C12.3668 15.7896 12.403 15.7436 12.425 15.6905C12.4469 15.6374 12.4538 15.5793 12.4449 15.5225C12.436 15.4657 12.4116 15.4125 12.3744 15.3688L11.23 14.0175C11.0271 13.7781 10.9216 13.4711 10.9346 13.1576C10.9476 12.844 11.078 12.5468 11.3 12.325L12.325 11.3C12.5467 11.0781 12.8437 10.9476 13.1572 10.9346C13.4706 10.9215 13.7774 11.0267 14.0169 11.2294L15.3688 12.3731C15.4125 12.4103 15.4657 12.4347 15.5225 12.4437C15.5793 12.4526 15.6374 12.4457 15.6905 12.4237C15.7436 12.4018 15.7896 12.3656 15.8235 12.3192C15.8574 12.2727 15.8778 12.2179 15.8825 12.1606L16.0294 10.3963ZM21.125 18C21.125 17.1712 20.7958 16.3763 20.2097 15.7903C19.6237 15.2042 18.8288 14.875 18 14.875C17.1712 14.875 16.3763 15.2042 15.7903 15.7903C15.2042 16.3763 14.875 17.1712 14.875 18C14.875 18.8288 15.2042 19.6237 15.7903 20.2097C16.3763 20.7958 17.1712 21.125 18 21.125C18.8288 21.125 19.6237 20.7958 20.2097 20.2097C20.7958 19.6237 21.125 18.8288 21.125 18Z" fill="#85959F"/>
<path d="M23 18C23 19.3261 22.4732 20.5979 21.5355 21.5355C20.5979 22.4732 19.3261 23 18 23C16.6739 23 15.4021 22.4732 14.4645 21.5355C13.5268 20.5979 13 19.3261 13 18C13 16.6739 13.5268 15.4021 14.4645 14.4645C15.4021 13.5268 16.6739 13 18 13C19.3261 13 20.5979 13.5268 21.5355 14.4645C22.4732 15.4021 23 16.6739 23 18ZM20.8125 18C20.8125 17.2541 20.5162 16.5387 19.9887 16.0113C19.4613 15.4838 18.7459 15.1875 18 15.1875C17.2541 15.1875 16.5387 15.4838 16.0113 16.0113C15.4838 16.5387 15.1875 17.2541 15.1875 18C15.1875 18.7459 15.4838 19.4613 16.0113 19.9887C16.5387 20.5162 17.2541 20.8125 18 20.8125C18.7459 20.8125 19.4613 20.5162 19.9887 19.9887C20.5162 19.4613 20.8125 18.7459 20.8125 18Z" fill="#66757F"/>
<path d="M14.5625 18C14.5625 17.0883 14.9247 16.214 15.5693 15.5693C16.214 14.9247 17.0883 14.5625 18 14.5625C18.9117 14.5625 19.786 14.9247 20.4307 15.5693C21.0753 16.214 21.4375 17.0883 21.4375 18C21.4375 18.9117 21.0753 19.786 20.4307 20.4307C19.786 21.0753 18.9117 21.4375 18 21.4375C17.0883 21.4375 16.214 21.0753 15.5693 20.4307C14.9247 19.786 14.5625 18.9117 14.5625 18ZM21.125 18C21.125 17.1712 20.7958 16.3763 20.2097 15.7903C19.6237 15.2042 18.8288 14.875 18 14.875C17.1712 14.875 16.3763 15.2042 15.7903 15.7903C15.2042 16.3763 14.875 17.1712 14.875 18C14.875 18.8288 15.2042 19.6237 15.7903 20.2097C16.3763 20.7958 17.1712 21.125 18 21.125C18.8288 21.125 19.6237 20.7958 20.2097 20.2097C20.7958 19.6237 21.125 18.8288 21.125 18Z" fill="#D8D8D8"/>
</svg>
