<svg width="24" height="24" viewBox="0 0 24 24" fill="none" xmlns="http://www.w3.org/2000/svg">
<path fill-rule="evenodd" clip-rule="evenodd" d="M11.9994 13.4839L17.1758 18.6603C17.3483 18.8269 17.5795 18.9192 17.8194 18.9171C18.0593 18.915 18.2888 18.8188 18.4585 18.6491C18.6281 18.4795 18.7244 18.25 18.7264 18.01C18.7285 17.7701 18.6363 17.539 18.4696 17.3664L13.2932 12.19L18.4696 7.01362C18.6363 6.84104 18.7285 6.6099 18.7264 6.36998C18.7244 6.13006 18.6281 5.90056 18.4585 5.7309C18.2888 5.56124 18.0593 5.46501 17.8194 5.46293C17.5795 5.46084 17.3483 5.55307 17.1758 5.71975L11.9994 10.8961L6.82298 5.71975C6.64962 5.55719 6.41982 5.46845 6.1822 5.47231C5.94458 5.47617 5.71778 5.57232 5.5498 5.74043C5.38181 5.90853 5.28582 6.1354 5.28213 6.37302C5.27843 6.61064 5.36734 6.84038 5.53002 7.01362L10.7055 12.19L5.52911 17.3664C5.44171 17.4508 5.372 17.5518 5.32405 17.6634C5.27609 17.7751 5.25085 17.8951 5.24979 18.0166C5.24873 18.1381 5.27189 18.2586 5.3179 18.3711C5.3639 18.4835 5.43185 18.5857 5.51777 18.6716C5.60368 18.7575 5.70585 18.8255 5.8183 18.8715C5.93076 18.9175 6.05125 18.9406 6.17275 18.9396C6.29425 18.9385 6.41432 18.9133 6.52596 18.8653C6.6376 18.8174 6.73857 18.7477 6.82298 18.6603L11.9994 13.4839Z" fill="#383C44"/>
</svg>
