<svg width="36" height="36" viewBox="0 0 36 36" fill="none" xmlns="http://www.w3.org/2000/svg">
<circle cx="18" cy="18" r="18" fill="#F3F4F6"/>
<path d="M15.7561 25.3828C16.0433 26.4995 16.9345 27.3188 18.0001 27.3188C19.0663 27.3188 19.9568 26.4995 20.2441 25.3828H15.7561Z" fill="#FF822D"/>
<path d="M18 12.0938C17.5687 12.0938 17.2188 11.7438 17.2188 11.3125V10.0312C17.2188 9.82405 17.3011 9.62534 17.4476 9.47882C17.5941 9.33231 17.7928 9.25 18 9.25C18.2072 9.25 18.4059 9.33231 18.5524 9.47882C18.6989 9.62534 18.7812 9.82405 18.7812 10.0312V11.3125C18.7812 11.7438 18.4312 12.0938 18 12.0938Z" fill="#FFB02E"/>
<path d="M25.8077 22.5089C25.1615 22.0375 24.7712 21.3337 24.6096 20.5878L23.4452 15.1596C22.9269 12.7548 20.6519 11.0227 18 11.0166C15.3481 11.0227 13.0731 12.7548 12.5548 15.1596L11.3904 20.5878C11.2289 21.3337 10.8385 22.0375 10.1923 22.5089C9.89683 22.7259 9.65878 23.0002 9.49571 23.3116C9.33263 23.623 9.24868 23.9635 9.25002 24.3081V25.0608C9.25002 25.3913 9.53944 25.6542 9.88944 25.6542H26.1106C26.4673 25.6542 26.75 25.3913 26.75 25.0608V24.3081C26.75 23.5738 26.3798 22.931 25.8077 22.5089Z" fill="#F9C23C"/>
</svg>
