<svg width="120" height="120" viewBox="0 0 120 120" fill="none" xmlns="http://www.w3.org/2000/svg">
<rect width="120" height="120" fill="#F3F4F6"/>
<g clip-path="url(#clip0_892_34551)">
<path d="M92.3071 61.8683C93.3543 60.9637 94.2014 60.4784 95.5466 60.1549C96.8918 59.8314 98.486 60.1826 99.2714 61.3192C99.6886 61.9236 99.8375 62.6814 99.8226 63.4157C99.8077 64.15 99.6417 64.8715 99.4757 65.5888C100.959 64.7779 102.779 64.9013 104.033 66.0358C105.286 67.1702 105.718 69.122 105.059 70.6779C106.082 69.8776 107.734 69.9862 108.837 70.6736C109.939 71.3611 110.599 72.6552 110.644 73.9536C110.688 75.2519 110.169 76.0586 109.326 77.0483" fill="#E5E7EB"/>
<path d="M92.3071 61.8683C93.3543 60.9637 94.2014 60.4784 95.5466 60.1549C96.8918 59.8314 98.486 60.1826 99.2714 61.3192C99.6886 61.9236 99.8375 62.6814 99.8226 63.4157C99.8077 64.15 99.6417 64.8715 99.4757 65.5888C100.959 64.7779 102.779 64.9013 104.033 66.0358C105.286 67.1702 105.718 69.122 105.059 70.6779C106.082 69.8776 107.734 69.9862 108.837 70.6736C109.939 71.3611 110.599 72.6552 110.644 73.9536C110.688 75.2519 110.169 76.0586 109.326 77.0483" stroke="#CDCFD4" stroke-width="1.87911" stroke-miterlimit="10" stroke-linecap="round"/>
<path d="M73.8287 82.9111C75.1462 85.6015 76.485 88.3621 76.7894 91.3419C77.0937 94.3217 76.1508 97.6144 73.6946 99.3278C72.094 100.445 70.0741 100.764 68.1266 100.884C65.979 101.014 63.7186 100.911 61.8562 99.8343C59.4745 98.4572 58.2081 95.7861 57.0822 93.2745C55.5476 89.852 54.0129 86.4294 52.4805 83.0069" fill="#E5E7EB"/>
<path d="M73.8287 82.9111C75.1462 85.6015 76.485 88.3621 76.7894 91.3419C77.0937 94.3217 76.1508 97.6144 73.6946 99.3278C72.094 100.445 70.0741 100.764 68.1266 100.884C65.979 101.014 63.7186 100.911 61.8562 99.8343C59.4745 98.4572 58.2081 95.7861 57.0822 93.2745C55.5476 89.852 54.0129 86.4294 52.4805 83.0069" stroke="#CDCFD4" stroke-width="1.87911" stroke-miterlimit="10" stroke-linecap="round"/>
<path d="M29.5815 68.9997L31.6899 66.3643L88.6163 77.9604L90.1976 87.4481L73.8576 89.5565L68.0595 84.2855L55.9363 87.4481L42.2318 91.6649L33.2712 78.4875L29.5815 68.9997Z" fill="#E5E7EB"/>
<path d="M29.4263 68.2539C31.0375 74.337 31.9165 80.6116 32.0357 86.9033C32.0762 89.0083 32.0357 91.1325 32.4614 93.1928C32.8892 95.2531 33.847 97.2858 35.5264 98.5565C37.0184 99.6867 38.9702 100.117 40.8368 99.974C42.7035 99.8314 44.9043 99.5717 46.5474 98.6757" fill="#E5E7EB"/>
<path d="M29.4263 68.2539C31.0375 74.337 31.9165 80.6116 32.0357 86.9033C32.0762 89.0083 32.0357 91.1325 32.4614 93.1928C32.8892 95.2531 33.847 97.2858 35.5264 98.5565C37.0184 99.6867 38.9702 100.117 40.8368 99.974C42.7035 99.8314 44.9043 99.5717 46.5474 98.6757" stroke="#CDCFD4" stroke-width="1.87911" stroke-miterlimit="10" stroke-linecap="round"/>
<path d="M29.3773 68.3014C28.4408 65.5579 28.4642 66.0666 27.3531 63.1761C25.8718 59.3237 23.9604 55.4925 20.8188 52.8149C18.3988 50.7524 15.3892 49.5031 12.8457 47.596C10.2213 45.6293 8.12483 42.2195 7.87581 38.9162C7.60762 35.3575 9.65092 31.3028 11.9475 28.721C14.4697 25.8859 18.0114 24.5301 21.7681 23.9831C26.6124 23.2807 31.7675 25.3751 35.2943 28.7699C38.8212 32.1648 40.907 36.1684 43.4441 40.3529C45.9834 44.5374 48.3161 49.3647 52.3815 52.0912C55.5401 54.2112 59.8523 54.6964 63.6558 54.6347C75.8411 54.4346 87.3943 57.9615 97.0063 65.4514C101.848 69.2252 106.12 74.029 110.556 78.2753C111.618 79.2905 112.34 80.7698 111.509 81.9809C110.677 83.192 109.251 83.8369 107.87 84.3349C102.127 86.4059 95.1865 86.4485 89.9058 86.5102" fill="#E5E7EB"/>
<path d="M29.3773 68.3014C28.4408 65.5579 28.4642 66.0666 27.3531 63.1761C25.8718 59.3237 23.9604 55.4925 20.8188 52.8149C18.3988 50.7524 15.3892 49.5031 12.8457 47.596C10.2213 45.6293 8.12483 42.2195 7.87581 38.9162C7.60762 35.3575 9.65092 31.3028 11.9475 28.721C14.4697 25.8859 18.0114 24.5301 21.7681 23.9831C26.6124 23.2807 31.7675 25.3751 35.2943 28.7699C38.8212 32.1648 40.907 36.1684 43.4441 40.3529C45.9834 44.5374 48.3161 49.3647 52.3815 52.0912C55.5401 54.2112 59.8523 54.6964 63.6558 54.6347C75.8411 54.4346 87.3943 57.9615 97.0063 65.4514C101.848 69.2252 106.12 74.029 110.556 78.2753C111.618 79.2905 112.34 80.7698 111.509 81.9809C110.677 83.192 109.251 83.8369 107.87 84.3349C102.127 86.4059 95.1865 86.4485 89.9058 86.5102" stroke="#CDCFD4" stroke-width="1.87911" stroke-miterlimit="10" stroke-linecap="round"/>
<path d="M41.37 83.0659C39.2564 82.0612 37.6175 81.0013 36.2617 79.7646" stroke="#CDCFD4" stroke-width="1.87911" stroke-miterlimit="10" stroke-linecap="round"/>
<path d="M60.1543 90.0844C60.9801 89.9481 61.9725 87.634 62.7898 87.4489C63.5518 87.2765 63.0905 86.6077 63.844 86.3948C64.5017 86.2075 68.4509 86.6314 69.1149 86.923C70.1877 87.3934 71.5253 88.9896 71.9021 90.0709C72.432 91.5991 72.2767 93.719 72.6938 95.2792C73.5303 98.3973 76.3611 100.483 79.5219 101.145C82.6805 101.805 86.1626 100.556 88.1804 98.0334C90.6366 94.9642 90.76 90.62 90.0087 86.7612" fill="#E5E7EB"/>
<path d="M60.1543 90.0844C60.9801 89.9481 61.9725 87.634 62.7898 87.4489C63.5518 87.2765 63.0905 86.6077 63.844 86.3948C64.5017 86.2075 68.4509 86.6314 69.1149 86.923C70.1877 87.3934 71.5253 88.9896 71.9021 90.0709C72.432 91.5991 72.2767 93.719 72.6938 95.2792C73.5303 98.3973 76.3611 100.483 79.5219 101.145C82.6805 101.805 86.1626 100.556 88.1804 98.0334C90.6366 94.9642 90.76 90.62 90.0087 86.7612" stroke="#CDCFD4" stroke-width="1.87911" stroke-miterlimit="10" stroke-linecap="round"/>
<path d="M41.4023 83.0605C42.0409 84.112 42.4091 85.3444 42.6411 86.8428C43.1072 89.8375 42.8922 93.0621 44.3332 95.729C45.6209 98.1086 47.9686 99.8859 50.6078 100.478C53.2471 101.069 56.4291 100.399 58.6086 98.7982C62.442 95.9844 63.4117 91.1489 63.3159 86.394" fill="#E5E7EB"/>
<path d="M41.4023 83.0605C42.0409 84.112 42.4091 85.3444 42.6411 86.8428C43.1072 89.8375 42.8922 93.0621 44.3332 95.729C45.6209 98.1086 47.9686 99.8859 50.6078 100.478C53.2471 101.069 56.4291 100.399 58.6086 98.7982C62.442 95.9844 63.4117 91.1489 63.3159 86.394" stroke="#CDCFD4" stroke-width="1.87911" stroke-miterlimit="10" stroke-linecap="round"/>
</g>
<path d="M58.4509 71.0297C58.4509 70.6151 58.5864 70.2723 58.8575 70.0012C59.1285 69.7142 59.4713 69.5707 59.8859 69.5707C60.5396 69.5707 61.1296 69.475 61.6558 69.2837C62.182 69.0764 62.5966 68.7495 62.8995 68.3031C63.2184 67.8566 63.3779 67.2667 63.3779 66.5332C63.3779 65.9911 63.2423 65.5127 62.9713 65.0981C62.7161 64.6836 62.3574 64.3567 61.895 64.1175C61.4485 63.8784 60.9383 63.7588 60.3643 63.7588C59.9178 63.7588 59.4953 63.8385 59.0966 63.9979C58.7139 64.1574 58.3632 64.3726 58.0443 64.6437C57.7891 64.8669 57.4782 65.0344 57.1115 65.146C56.7607 65.2416 56.4019 65.154 56.0352 64.8829C55.6525 64.5959 55.4452 64.2531 55.4133 63.8544C55.3814 63.4558 55.5329 63.0891 55.8678 62.7542C56.4418 62.1643 57.1115 61.7098 57.8768 61.3909C58.6581 61.0561 59.4873 60.8887 60.3643 60.8887C61.4645 60.8887 62.453 61.1438 63.33 61.654C64.2229 62.1483 64.9325 62.818 65.4587 63.6631C65.9849 64.5082 66.248 65.4649 66.248 66.5332C66.248 67.3304 66.1284 68.04 65.8892 68.6618C65.65 69.2678 65.3072 69.7939 64.8607 70.2404C64.4302 70.6709 63.92 71.0217 63.33 71.2928C62.756 71.5479 62.1262 71.7313 61.4405 71.8429C61.4087 71.8588 61.3768 71.8748 61.3449 71.8907C61.3289 71.9067 61.321 71.9306 61.321 71.9625V72.8474C61.321 73.262 61.1854 73.6128 60.9144 73.8998C60.6433 74.1708 60.3005 74.3064 59.8859 74.3064C59.4713 74.3064 59.1285 74.1708 58.8575 73.8998C58.5864 73.6128 58.4509 73.262 58.4509 72.8474V71.0297ZM59.7663 78.5876C59.3039 78.5876 58.9452 78.468 58.69 78.2288C58.4509 77.9737 58.3313 77.615 58.3313 77.1525V76.746C58.3313 76.2835 58.4509 75.9328 58.69 75.6936C58.9452 75.4385 59.3039 75.3109 59.7663 75.3109H60.0772C60.5396 75.3109 60.8904 75.4385 61.1296 75.6936C61.3847 75.9328 61.5123 76.2835 61.5123 76.746V77.1525C61.5123 77.615 61.3847 77.9737 61.1296 78.2288C60.8904 78.468 60.5396 78.5876 60.0772 78.5876H59.7663Z" fill="#CDCFD4"/>
<defs>
<clipPath id="clip0_892_34551">
<rect width="106.39" height="79.1694" fill="white" transform="translate(7 23)"/>
</clipPath>
</defs>
</svg>
