<svg width="42" height="42" viewBox="0 0 42 42" fill="none" xmlns="http://www.w3.org/2000/svg">
<circle cx="21" cy="21" r="21" fill="#F7F8FA"/>
<ellipse cx="22.2362" cy="30.8254" rx="12.7201" ry="1.28541" fill="#E5E7EB"/>
<path d="M17.2856 17.9463L14.9793 20.6081L13.957 23.0888C15.1841 23.902 16.4856 25.0261 17.6806 26.6022C21.0253 31.0134 23.7139 31.3434 27.434 31.3434C31.7222 31.3434 34.4828 29.4427 34.9289 28.972L34.2893 25.4485C26.0277 27.5413 21.6606 21.532 17.2856 17.9463Z" fill="#F9D2B1"/>
<path d="M11.29 15.2344C10.4106 15.6702 9.73743 16.4359 9.37282 17.4263C8.94877 18.5779 8.89339 20.0389 9.66856 21.0941C10.5863 21.3945 12.1935 21.9209 13.9543 23.0879L17.2829 17.9454C15.0173 16.0729 12.4238 15.3339 11.29 15.2344Z" fill="#F9D2B1"/>
<path d="M16.7658 18.733L19.3755 16.266L20.2971 13.2698C19.7885 12.7503 19.4586 12.1043 19.2575 11.6083C18.9496 10.8489 18.6184 10.1212 17.3892 9.65039L15.5105 17.7517L16.7658 18.733Z" fill="#F4A865"/>
<path d="M17.3924 9.65039C15.4276 10.0026 13.7257 11.1485 12.4708 12.9644C11.8356 13.8834 11.4659 14.7562 11.2908 15.2329C12.0958 15.5362 13.7172 16.4233 15.5137 17.7517C17.0491 15.9897 18.4281 13.0319 17.3924 9.65039Z" fill="#BE5900"/>
<path d="M29.0161 22.4565L27.8618 21.6569L27.7603 20.8573C27.4243 20.2949 27.1866 19.7293 27.0366 19.1814L26.5766 18.4747L26.839 17.5822C26.9281 15.9331 26.3296 14.7218 25.1085 13.993C23.6096 14.5311 22.3889 14.5311 21.0962 13.8654C20.7907 13.7082 20.5261 13.5001 20.2975 13.2666L16.7661 18.7299C17.8856 19.655 19.0155 20.7309 20.012 21.926L20.0475 21.9685C21.5522 23.773 22.9734 25.4773 24.9243 26.3627C27.0996 27.3499 30.3969 27.5592 34.2845 25.443C33.6364 21.9783 30.2006 23.6426 29.0161 22.4565Z" fill="#EA6D00"/>
<path d="M24.5488 19.1812H27.0335C26.8804 18.6221 26.8185 18.0817 26.8359 17.582H24.5488V19.1812Z" fill="#EEE8E5"/>
<path d="M25.7996 22.4556H29.0143C28.4975 21.9381 28.0824 21.3988 27.7584 20.8564H25.7996V22.4556H25.7996Z" fill="#EEE8E5"/>
</svg>
