<svg width="17" height="16" viewBox="0 0 17 16" fill="none" xmlns="http://www.w3.org/2000/svg">
<path d="M10.3654 3.07524L14.8327 10.5159C15.4747 11.5846 15.1594 12.9906 14.128 13.6559C13.7821 13.8805 13.3785 14 12.966 13.9999H4.0307C2.8167 13.9999 1.83203 12.9799 1.83203 11.7206C1.83203 11.2946 1.94736 10.8779 2.16403 10.5159L6.63203 3.07524C7.27336 2.00657 8.62936 1.67924 9.6607 2.34457C9.94603 2.52857 10.1874 2.77857 10.3654 3.07524ZM8.4987 11.3332C8.67551 11.3332 8.84508 11.263 8.9701 11.138C9.09513 11.013 9.16536 10.8434 9.16536 10.6666C9.16536 10.4898 9.09513 10.3202 8.9701 10.1952C8.84508 10.0701 8.67551 9.9999 8.4987 9.9999C8.32189 9.9999 8.15232 10.0701 8.02729 10.1952C7.90227 10.3202 7.83203 10.4898 7.83203 10.6666C7.83203 10.8434 7.90227 11.013 8.02729 11.138C8.15232 11.263 8.32189 11.3332 8.4987 11.3332ZM8.4987 5.33324C8.32189 5.33324 8.15232 5.40348 8.02729 5.5285C7.90227 5.65353 7.83203 5.82309 7.83203 5.99991V8.66657C7.83203 8.84338 7.90227 9.01295 8.02729 9.13798C8.15232 9.263 8.32189 9.33324 8.4987 9.33324C8.67551 9.33324 8.84508 9.263 8.9701 9.13798C9.09513 9.01295 9.16536 8.84338 9.16536 8.66657V5.99991C9.16536 5.82309 9.09513 5.65353 8.9701 5.5285C8.84508 5.40348 8.67551 5.33324 8.4987 5.33324Z" fill="#FEE500"/>
</svg>
