<svg width="24" height="24" viewBox="0 0 24 24" fill="none" xmlns="http://www.w3.org/2000/svg">
<path d="M9.0418 19.0039H14.9578C14.8396 19.7029 14.4777 20.3375 13.9362 20.795C13.3947 21.2526 12.7087 21.5037 11.9998 21.5037C11.2909 21.5037 10.6049 21.2526 10.0634 20.795C9.52193 20.3375 9.16001 19.7029 9.0418 19.0039ZM11.9998 2.00391C13.9889 2.00391 15.8966 2.79408 17.3031 4.20061C18.7096 5.60713 19.4998 7.51478 19.4998 9.50391V13.5039L20.9178 16.6639C20.9823 16.8084 21.0096 16.9668 20.9973 17.1246C20.9851 17.2823 20.9336 17.4345 20.8476 17.5674C20.7615 17.7002 20.6437 17.8094 20.5047 17.8851C20.3657 17.9608 20.2101 18.0006 20.0518 18.0009H3.9518C3.79333 18.0009 3.63739 17.9612 3.49817 17.8855C3.35895 17.8098 3.24087 17.7005 3.1547 17.5675C3.06852 17.4345 3.01699 17.2821 3.00478 17.1241C2.99257 16.9661 3.02008 16.8076 3.0848 16.6629L4.4998 13.5029V9.49091L4.5048 9.24091C4.57321 7.29876 5.3928 5.45899 6.7909 4.1092C8.189 2.75941 10.0564 2.004 11.9998 2.00391Z" fill="#9CA1AB"/>
<circle cx="17.5" cy="5.5" r="3.5" fill="#FF6D6D"/>
</svg>
