<svg width="24" height="24" viewBox="0 0 24 24" fill="none" xmlns="http://www.w3.org/2000/svg">
<path d="M16.562 11.7045C16.562 11.4408 16.4641 11.2148 16.2531 11.019L10.3921 5.27846C10.2264 5.11272 10.0154 5.02232 9.76681 5.02232C9.2696 5.02232 8.87033 5.41406 8.87033 5.91881C8.87033 6.16741 8.9758 6.38588 9.14153 6.55915L14.4225 11.7045L9.14153 16.8499C8.97579 17.0232 8.87033 17.2492 8.87033 17.4902C8.87033 17.995 9.2696 18.3867 9.76681 18.3867C10.0154 18.3867 10.2264 18.2963 10.3921 18.1306L16.2531 12.3976C16.4641 12.1942 16.562 11.9682 16.562 11.7045Z" fill="#383C44"/>
</svg>
