<svg width="36" height="36" viewBox="0 0 36 36" fill="none" xmlns="http://www.w3.org/2000/svg">
<circle cx="18" cy="18" r="18" fill="#F3F4F6"/>
<g clip-path="url(#clip0_4567_33510)">
<rect x="9.49805" y="9.43945" width="14.4589" height="15.748" rx="1.13256" fill="#D0DAE6"/>
<path d="M24.4526 17.1688C24.0006 16.6808 23.3693 16.4121 22.6725 16.4121C21.972 16.4121 21.3386 16.6792 20.8887 17.1642C20.434 17.6545 20.2124 18.3208 20.2644 19.0404C20.3675 20.46 21.4478 21.6148 22.6725 21.6148C23.8972 21.6148 24.9756 20.4602 25.0804 19.0409C25.1331 18.3278 24.9101 17.6628 24.4526 17.1688ZM26.7603 26.8175H18.5847C18.4777 26.8189 18.3717 26.7964 18.2745 26.7517C18.1772 26.707 18.0912 26.6411 18.0226 26.559C17.8716 26.3785 17.8108 26.1321 17.8558 25.8829C18.0519 24.7954 18.6637 23.8819 19.6252 23.2406C20.4795 22.6714 21.5616 22.358 22.6725 22.358C23.7834 22.358 24.8655 22.6716 25.7198 23.2406C26.6814 23.8817 27.2932 24.7952 27.4892 25.8826C27.5342 26.1319 27.4734 26.3783 27.3224 26.5588C27.2539 26.641 27.1678 26.7068 27.0706 26.7516C26.9734 26.7963 26.8674 26.8189 26.7603 26.8175Z" fill="#0074BA"/>
<path d="M12.1973 12.2715H17.8988" stroke="#7D8D9E" stroke-width="1.35907" stroke-linecap="round"/>
<path d="M12.1973 14.5361H17.8988" stroke="#7D8D9E" stroke-width="1.35907" stroke-linecap="round"/>
<path d="M12.1973 16.8018H15.0486" stroke="#7D8D9E" stroke-width="1.35907" stroke-linecap="round"/>
</g>
<defs>
<clipPath id="clip0_4567_33510">
<rect width="20" height="20" fill="white" transform="translate(8 8)"/>
</clipPath>
</defs>
</svg>
