<svg width="36" height="36" viewBox="0 0 36 36" fill="none" xmlns="http://www.w3.org/2000/svg">
<circle cx="18" cy="18" r="18" fill="#F3F4F6"/>
<path d="M16.2007 13.5498L25.5757 22.9248C25.7521 23.0984 25.8924 23.3052 25.9885 23.5333C26.0846 23.7614 26.1346 24.0063 26.1355 24.2538C26.1365 24.5013 26.0885 24.7466 25.9942 24.9754C25.8999 25.2043 25.7613 25.4122 25.5862 25.5872C25.4112 25.7622 25.2032 25.9008 24.9744 25.995C24.7455 26.0893 24.5002 26.1372 24.2527 26.1362C24.0052 26.1352 23.7603 26.0851 23.5323 25.989C23.3042 25.8929 23.0974 25.7525 22.9238 25.5761L13.5488 16.2011L16.2007 13.5498Z" fill="#7D4533"/>
<path d="M15.142 9.39352L10.7207 13.8141C10.6621 13.8728 10.6292 13.9522 10.6292 14.0351C10.6292 14.1179 10.6621 14.1974 10.7207 14.256L11.7501 16.1248L13.5938 17.1291C13.6524 17.1877 13.7319 17.2206 13.8148 17.2206C13.8976 17.2206 13.9771 17.1877 14.0357 17.1291L17.1295 14.0354C17.1881 13.9768 17.221 13.8973 17.221 13.8145C17.221 13.7316 17.1881 13.6521 17.1295 13.5935L15.9107 12.3748C15.6126 12.0748 15.8795 11.7498 15.8795 11.7498L17.582 10.0473C17.6235 10.0055 17.6525 9.95288 17.6654 9.89541C17.6784 9.83793 17.6748 9.77797 17.6551 9.72243C17.6355 9.66689 17.6005 9.61805 17.5543 9.58153C17.508 9.54501 17.4524 9.5223 17.3938 9.51602L15.3963 9.30352C15.3499 9.29857 15.303 9.30408 15.2589 9.31965C15.2149 9.33523 15.175 9.36047 15.142 9.39352ZM24.4501 13.7029L26.0438 12.1091C26.2438 11.9029 26.5938 12.0029 26.6626 12.2841C26.9126 13.3216 26.6376 14.4591 25.8251 15.2716C25.4149 15.6821 24.8996 15.9717 24.3357 16.1088C23.7719 16.246 23.1811 16.2253 22.6282 16.0491L16.5432 22.1773C16.7102 22.7332 16.7216 23.3243 16.5762 23.8863C16.4307 24.4483 16.134 24.9597 15.7182 25.3648C15.3342 25.7366 14.8622 26.0049 14.3463 26.1448C13.8304 26.2847 13.2875 26.2916 12.7682 26.1648C12.7048 26.1491 12.6467 26.1169 12.5997 26.0715C12.5528 26.0261 12.5187 25.9691 12.5009 25.9063C12.4831 25.8434 12.4823 25.777 12.4985 25.7137C12.5147 25.6504 12.5474 25.5926 12.5932 25.546L14.187 23.9523C14.3307 23.8085 14.3307 23.5773 14.187 23.4335L13.1807 22.4273C13.1467 22.3931 13.1063 22.3659 13.0618 22.3474C13.0173 22.3289 12.9696 22.3193 12.9213 22.3193C12.8731 22.3193 12.8254 22.3289 12.7809 22.3474C12.7364 22.3659 12.696 22.3931 12.662 22.4273L11.0682 24.021C10.8682 24.2273 10.5182 24.1273 10.4495 23.846C10.1995 22.8085 10.4745 21.671 11.287 20.8585C11.7013 20.4441 12.2226 20.153 12.7927 20.0176C13.3628 19.8821 13.9593 19.9078 14.5157 20.0916L20.5795 13.9854C20.4047 13.4258 20.3883 12.8288 20.532 12.2604C20.6758 11.6921 20.9741 11.1746 21.3938 10.7654C21.7779 10.3936 22.2499 10.1252 22.7658 9.98534C23.2817 9.84544 23.8246 9.83858 24.3438 9.9654C24.6251 10.0341 24.7188 10.3841 24.5188 10.5841L22.9251 12.1779C22.7813 12.3216 22.7813 12.5529 22.9251 12.6966L23.9313 13.7029C24.0751 13.8466 24.3063 13.8466 24.4501 13.7029Z" fill="#8FA0AD"/>
<path d="M8.73602 15.0617C8.70682 15.0324 8.69043 14.9927 8.69043 14.9514C8.69043 14.91 8.70682 14.8703 8.73602 14.8411L9.1379 14.4386C9.25398 14.3224 9.3918 14.2303 9.54349 14.1675C9.69518 14.1046 9.85776 14.0723 10.022 14.0723C10.1862 14.0723 10.3487 14.1046 10.5004 14.1675C10.6521 14.2303 10.7899 14.3224 10.906 14.4386L13.3366 16.8698C13.571 17.1042 13.7026 17.4221 13.7026 17.7536C13.7026 18.085 13.571 18.4029 13.3366 18.6373L12.9341 19.0392C12.9049 19.0684 12.8652 19.0848 12.8238 19.0848C12.7825 19.0848 12.7428 19.0684 12.7135 19.0392L8.73602 15.0617Z" fill="#B0C4D3"/>
</svg>
