<svg width="20" height="22" viewBox="0 0 20 22" fill="none" xmlns="http://www.w3.org/2000/svg">
<circle cx="10" cy="17" r="5" fill="#2B2E36"/>
<path fill-rule="evenodd" clip-rule="evenodd" d="M9.89648 16.4373L10.4773 17.0109C10.4011 17.0867 10.3105 17.1468 10.2107 17.1878C10.111 17.2289 10.0041 17.25 9.89607 17.25C9.78808 17.25 9.68114 17.2289 9.58141 17.1878C9.48167 17.1468 9.3911 17.0867 9.31488 17.0109L9.30996 17.0052L9.29601 16.9914L9.24516 16.9402C8.95599 16.6452 8.67158 16.3456 8.39203 16.0416C7.69017 15.2799 7.01811 14.4917 6.37734 13.6789C5.64562 12.7445 4.8975 11.6883 4.32902 10.645C3.77285 9.62212 3.33398 8.51389 3.33398 7.49991C3.33398 3.81202 6.28055 1 9.89648 1C13.5124 1 16.459 3.81202 16.459 7.49991C16.459 8.51389 16.0201 9.62212 15.4639 10.6442C14.8955 11.6891 14.1482 12.7445 13.4156 13.6789C12.5193 14.8161 11.562 15.9047 10.5478 16.9402L10.497 16.9914L10.483 17.0052L10.4781 17.0101L9.89648 16.4373ZM9.89648 9.93737C10.5492 9.93737 11.1751 9.68057 11.6366 9.22345C12.0981 8.76634 12.3574 8.14636 12.3574 7.49991C12.3574 6.85345 12.0981 6.23347 11.6366 5.77636C11.1751 5.31924 10.5492 5.06244 9.89648 5.06244C9.2438 5.06244 8.61785 5.31924 8.15634 5.77636C7.69482 6.23347 7.43555 6.85345 7.43555 7.49991C7.43555 8.14636 7.69482 8.76634 8.15634 9.22345C8.61785 9.68057 9.2438 9.93737 9.89648 9.93737Z" fill="#70CFFF"/>
</svg>
