<svg width="42" height="42" viewBox="0 0 42 42" fill="none" xmlns="http://www.w3.org/2000/svg">
<circle cx="21" cy="21" r="21" fill="#F7F8FA"/>
<g clip-path="url(#clip0_897_34563)">
<path d="M32.0697 12.2184C32.0697 11.9674 31.7844 11.824 31.5823 11.9726C27.5603 14.9319 23.5384 7.75022 19.5162 11.5631L18.7441 15.0592L19.5162 19.0463C23.5022 15.2676 27.4881 22.2871 31.474 19.5329C31.8495 19.2737 32.0697 18.8422 32.0697 18.3859C32.0697 16.2438 32.0697 14.3609 32.0697 12.2184Z" fill="#0DAEFF"/>
<path d="M19.0804 11.1309H18.4006C18.1618 11.1309 17.9683 11.3244 17.9683 11.5632V28.4167H19.5126V11.5632C19.5126 11.3244 19.3191 11.1309 19.0804 11.1309Z" fill="#B7E5FF"/>
<path d="M23.9204 21.9781C23.8239 22.4357 23.4932 22.7731 23.0245 22.8699C22.8611 22.9037 22.7444 23.0488 22.7444 23.2194V23.2382C22.7444 23.4058 22.8621 23.5503 23.0261 23.5844C23.4939 23.6818 23.8239 24.0186 23.9203 24.4756C23.9551 24.6399 24.0945 24.7608 24.2668 24.7608H24.2894C24.4563 24.7608 24.6013 24.6442 24.6351 24.4805C24.7321 24.012 25.0693 23.6813 25.5266 23.5848C25.6909 23.5501 25.8119 23.4105 25.8119 23.2426V23.2116C25.8119 23.0436 25.6909 22.9041 25.5266 22.8692C25.0693 22.7727 24.7321 22.4422 24.6351 21.9735C24.6013 21.81 24.4563 21.6934 24.285 21.6934H24.2626C24.0947 21.6934 23.9549 21.814 23.9204 21.9781Z" fill="#F5E277"/>
<path d="M12.7149 14.0564C12.6185 14.5138 12.2878 14.8512 11.8191 14.9482C11.6557 14.982 11.5388 15.1271 11.5388 15.2977V15.3165C11.5388 15.4841 11.6565 15.6284 11.8207 15.6626C12.2885 15.7599 12.6184 16.0969 12.7149 16.5537C12.7495 16.718 12.8891 16.839 13.0615 16.839H13.0838C13.2509 16.839 13.3959 16.7223 13.4297 16.5588C13.5266 16.0901 13.8638 15.7596 14.3212 15.6629C14.4855 15.6282 14.6063 15.4887 14.6063 15.3208V15.2897C14.6063 15.1218 14.4855 14.9822 14.3212 14.9475C13.8638 14.851 13.5266 14.5203 13.4297 14.0518C13.3959 13.8882 13.2509 13.7715 13.0796 13.7715H13.057C12.8893 13.7715 12.7495 13.8921 12.7149 14.0564Z" fill="#F5E277"/>
<path d="M32.1955 31.5911C29.6533 28.914 25.5857 27.1797 21.0011 27.1797C16.4164 27.1797 12.3489 28.914 9.80664 31.5911H32.1955Z" fill="#70CFFF"/>
<path d="M21.9021 27.2027C21.6041 27.1877 21.3038 27.1797 21.0011 27.1797C16.4164 27.1797 12.3489 28.914 9.80664 31.5911H11.6086C13.9829 29.0908 17.688 27.4134 21.9021 27.2027Z" fill="#0DAEFF"/>
</g>
<defs>
<clipPath id="clip0_897_34563">
<rect width="22.3889" height="22.3889" fill="white" transform="translate(9.80566 9.80566)"/>
</clipPath>
</defs>
</svg>
