<svg width="40" height="40" viewBox="0 0 40 40" fill="none" xmlns="http://www.w3.org/2000/svg">
<g clip-path="url(#clip0_6736_65168)">
<path d="M24.4049 12.9476L29.1239 8.22863C28.7896 7.82985 28.6166 7.32038 28.639 6.80048C28.6615 6.28058 28.8776 5.78789 29.245 5.41936C29.6372 5.02735 30.169 4.80713 30.7236 4.80713C31.2781 4.80713 31.8099 5.02735 32.2021 5.41936C32.4399 5.65711 32.6166 5.94889 32.7171 6.26978C32.8177 6.59067 32.8391 6.93112 32.7794 7.26206C33.1104 7.20244 33.4508 7.22381 33.7717 7.32435C34.0926 7.42489 34.3844 7.60162 34.6221 7.83942C35.0142 8.23161 35.2344 8.76343 35.2344 9.31795C35.2344 9.87246 35.0142 10.4043 34.6221 10.7965C34.2536 11.1639 33.7609 11.38 33.241 11.4025C32.7211 11.4249 32.2117 11.2519 31.8129 10.9176L27.0939 15.6366L24.4049 12.9476Z" fill="url(#paint0_linear_6736_65168)"/>
<path d="M28.2995 18.4212C26.9117 19.809 26.5398 21.8685 26.5885 23.8305C26.6584 26.643 25.6207 29.4776 23.4742 31.6241C19.3157 35.7826 12.5734 35.7826 8.41493 31.6241C4.25643 27.4656 4.25644 20.7233 8.41494 16.5648C10.5358 14.4439 13.3285 13.4055 16.1079 13.4484C18.1319 13.4797 20.2576 13.0997 21.6889 11.6683C22.7232 10.634 24.2664 10.2334 25.5352 10.9611C26.1619 11.3205 26.8304 11.7828 27.4012 12.3536C28.0132 12.9656 28.541 13.7305 28.9609 14.4456C29.7244 15.7459 29.3657 17.355 28.2995 18.4212Z" fill="url(#paint1_linear_6736_65168)"/>
<ellipse cx="10.6474" cy="20.1423" rx="2.14885" ry="1.65254" transform="rotate(-49.7855 10.6474 20.1423)" fill="#B47231"/>
<ellipse cx="14.4801" cy="16.7877" rx="0.940087" ry="0.722961" transform="rotate(-33.6716 14.4801 16.7877)" fill="#B47231"/>
</g>
<defs>
<linearGradient id="paint0_linear_6736_65168" x1="32.379" y1="7.77287" x2="22.9471" y2="28.956" gradientUnits="userSpaceOnUse">
<stop stop-color="#FFD983"/>
<stop offset="1" stop-color="#D7A431"/>
</linearGradient>
<linearGradient id="paint1_linear_6736_65168" x1="15.4727" y1="15.08" x2="15.8931" y2="82.9776" gradientUnits="userSpaceOnUse">
<stop offset="0.127467" stop-color="#D3883E"/>
<stop offset="0.791589" stop-color="#70CFFF"/>
</linearGradient>
<clipPath id="clip0_6736_65168">
<rect width="40" height="40" fill="white"/>
</clipPath>
</defs>
</svg>
