<svg width="76" height="24" viewBox="0 0 76 24" fill="none" xmlns="http://www.w3.org/2000/svg">
<path d="M65.6288 20.0292C64.4035 20.0292 63.3383 19.7856 62.4332 19.2982C61.5281 18.7969 60.825 18.1216 60.3237 17.2722C59.8224 16.4089 59.5718 15.4273 59.5718 14.3273C59.5718 13.4779 59.711 12.6981 59.9895 11.988C60.268 11.2779 60.6579 10.6652 61.1591 10.15C61.6604 9.6209 62.2522 9.2171 62.9345 8.93861C63.6307 8.6462 64.3896 8.5 65.2111 8.5C65.9908 8.5 66.701 8.63924 67.3415 8.91773C67.9959 9.19621 68.5598 9.58609 69.0333 10.0874C69.5067 10.5886 69.8687 11.1804 70.1194 11.8627C70.37 12.545 70.4814 13.2899 70.4535 14.0975L70.4327 14.9956H61.5978L61.1174 13.1159H67.7174L67.3624 13.5127V13.095C67.3345 12.7469 67.2231 12.4405 67.0282 12.176C66.8472 11.8975 66.6035 11.6817 66.2972 11.5285C65.9908 11.3753 65.6427 11.2988 65.2528 11.2988C64.7098 11.2988 64.2433 11.4102 63.8535 11.6329C63.4775 11.8418 63.1921 12.1551 62.9971 12.5728C62.8022 12.9766 62.7047 13.4779 62.7047 14.0766C62.7047 14.6893 62.83 15.2254 63.0807 15.6849C63.3452 16.1305 63.7212 16.4786 64.2085 16.7292C64.7098 16.9798 65.3016 17.1052 65.9839 17.1052C66.4573 17.1052 66.875 17.0355 67.237 16.8963C67.613 16.7571 68.0168 16.5203 68.4485 16.1862L70.0149 18.4001C69.5833 18.7761 69.1238 19.0824 68.6364 19.3191C68.1491 19.5558 67.6478 19.7299 67.1326 19.8413C66.6313 19.9666 66.1301 20.0292 65.6288 20.0292Z" fill="#0DAEFF"/>
<path d="M55.1547 19.8211V8.73047H58.4965V19.8211H55.1547Z" fill="#0DAEFF"/>
<path d="M46.3226 16.5609L45.0903 14.0545L50.2701 8.72852H54.6771L46.3226 16.5609ZM43.1061 19.8191V4.36328H46.4479V19.8191H43.1061ZM50.6251 19.8191L46.7194 14.7647L49.0796 12.9267L54.5727 19.8191H50.6251Z" fill="#0DAEFF"/>
<path d="M38.0369 19.8211V4.36523H41.3787V19.8211H38.0369Z" fill="#0DAEFF"/>
<path d="M29.5959 20.0084C28.663 20.0084 27.8275 19.7647 27.0895 19.2773C26.3655 18.7761 25.7876 18.0938 25.356 17.2305C24.9243 16.3533 24.7085 15.3646 24.7085 14.2646C24.7085 13.1368 24.9243 12.1412 25.356 11.2779C25.7876 10.4146 26.3794 9.73925 27.1313 9.25191C27.8832 8.75064 28.7396 8.5 29.7003 8.5C30.2294 8.5 30.7098 8.57658 31.1415 8.72975C31.587 8.88292 31.9769 9.09874 32.3111 9.37723C32.6453 9.64179 32.9307 9.95508 33.1674 10.3171C33.4042 10.6652 33.5782 11.0412 33.6896 11.445L33.0004 11.3614V8.72975H36.3213V19.8204H32.9377V17.1469L33.6896 17.126C33.5782 17.5159 33.3972 17.8849 33.1466 18.233C32.8959 18.5811 32.5896 18.8875 32.2276 19.152C31.8655 19.4166 31.4617 19.6254 31.0162 19.7786C30.5706 19.9318 30.0972 20.0084 29.5959 20.0084ZM30.5149 17.1887C31.0301 17.1887 31.4757 17.0703 31.8516 16.8336C32.2276 16.5969 32.52 16.2627 32.7288 15.8311C32.9377 15.3855 33.0421 14.8634 33.0421 14.2646C33.0421 13.6659 32.9377 13.1507 32.7288 12.719C32.52 12.2735 32.2276 11.9323 31.8516 11.6956C31.4757 11.445 31.0301 11.3197 30.5149 11.3197C30.0136 11.3197 29.575 11.445 29.199 11.6956C28.837 11.9323 28.5516 12.2735 28.3427 12.719C28.1338 13.1507 28.0294 13.6659 28.0294 14.2646C28.0294 14.8634 28.1338 15.3855 28.3427 15.8311C28.5516 16.2627 28.837 16.5969 29.199 16.8336C29.575 17.0703 30.0136 17.1887 30.5149 17.1887Z" fill="#0DAEFF"/>
<path d="M9.52846 19.8235L5.14233 5.20312H8.75566L10.9487 12.8893C11.0462 13.2374 11.1297 13.5925 11.1994 13.9545C11.2829 14.3026 11.3456 14.6368 11.3873 14.957C11.443 15.2773 11.4848 15.5767 11.5127 15.8551C11.5405 16.1197 11.5684 16.3425 11.5962 16.5235H11.1367C11.2202 16.0083 11.2899 15.5488 11.3456 15.145C11.4152 14.7412 11.4918 14.3652 11.5753 14.0171C11.6589 13.6551 11.7633 13.2792 11.8886 12.8893L14.0608 7.10378H16.9013L19.0317 12.8893C19.1988 13.3488 19.3381 13.7804 19.4494 14.1842C19.5608 14.588 19.6444 14.9779 19.7001 15.3539C19.7697 15.7159 19.8254 16.0779 19.8672 16.44L19.4494 16.5026C19.4773 16.252 19.4982 16.0222 19.5121 15.8134C19.526 15.5906 19.54 15.3817 19.5539 15.1868C19.5817 14.9779 19.6096 14.7621 19.6374 14.5393C19.6653 14.3165 19.707 14.0728 19.7627 13.8083C19.8184 13.5298 19.895 13.2165 19.9925 12.8684L22.1647 5.20312H25.6945L21.3083 19.8235H18.5931L15.126 11.4064L15.5228 11.4481L12.3272 19.8235H9.52846Z" fill="#0DAEFF"/>
<circle cx="56.86" cy="6.06786" r="1.78075" fill="#0DAEFF"/>
</svg>
