<svg width="200" height="200" viewBox="0 0 200 200" fill="none" xmlns="http://www.w3.org/2000/svg">
<rect width="200" height="200" fill="white"/>
<path d="M69.5943 42.3194C76.3169 33.6933 87.2711 26 99.2304 26C111.19 26 122.144 33.6933 128.867 42.3194C133.665 48.4755 137.749 55.7473 139.904 63.0344C142.494 71.786 143.281 82.5571 141.499 91.5687C137.825 110.141 119.96 123.661 99.2304 123.661C78.5012 123.661 60.6354 110.141 56.9618 91.5687C55.1797 82.5571 55.967 71.786 58.5566 63.0344C60.7121 55.7473 64.7956 48.4755 69.5943 42.3194Z" fill="#0DAEFF"/>
<path d="M98.0904 69.651C94.1882 50.1649 81.6833 37.4579 75.19 33.0366C74.9143 32.8489 74.7764 32.7551 74.6068 32.7465C74.4371 32.738 74.2865 32.8198 73.9851 32.9834C58.9161 41.1645 56.572 55.5637 57.3337 62.6182C57.3776 63.0249 57.3996 63.2283 57.5377 63.3758C57.6759 63.5234 57.8954 63.5618 58.3344 63.6387C75.7168 66.6823 87.2709 85.3152 91.4261 95.501C91.6695 96.0975 91.7912 96.3958 92.0633 96.4808C92.3354 96.5657 92.587 96.4015 93.0903 96.0731C98.425 92.5918 107.467 82.7485 112.304 77.1174C112.731 76.6194 112.945 76.3704 113.239 76.3832C113.532 76.396 113.714 76.6488 114.077 77.1542C116.491 80.5188 120.487 87.9185 122.062 93.6693C122.231 94.2883 122.316 94.5977 122.571 94.7158C122.827 94.8338 123.084 94.7133 123.599 94.4725C132.017 90.5356 141.975 72.9108 143.37 66.0422C143.379 65.995 143.384 65.9714 143.387 65.9428C143.389 65.9281 143.39 65.9114 143.39 65.8966C143.391 65.8678 143.389 65.8401 143.386 65.7846L143.386 65.7843C143.16 62.3901 143.047 60.6929 142.797 60.5276C142.655 60.4333 142.539 60.4081 142.37 60.4347C142.074 60.4813 141.232 62.0435 139.548 65.1678L139.548 65.1679C136.425 70.9643 131.774 77.0051 128.394 80.9347C127.682 81.7626 127.326 82.1766 126.958 82.0765C126.59 81.9764 126.489 81.4227 126.288 80.3155C123.94 67.3706 118.259 59.076 114.895 55.7212C114.5 55.3275 114.303 55.1307 114.034 55.1454C113.764 55.1602 113.578 55.3919 113.205 55.8554C109.014 61.0655 103.532 66.8788 100.164 70.3029C99.4513 71.0281 99.0947 71.3907 98.7459 71.2867C98.3971 71.1828 98.2948 70.6722 98.0904 69.651Z" fill="white"/>
<path d="M160.483 176.486C157.823 176.486 155.511 175.957 153.546 174.899C151.581 173.81 150.054 172.344 148.966 170.5C147.877 168.626 147.333 166.495 147.333 164.106C147.333 162.262 147.636 160.569 148.24 159.028C148.845 157.486 149.691 156.156 150.779 155.037C151.868 153.889 153.153 153.012 154.634 152.407C156.145 151.772 157.793 151.455 159.576 151.455C161.269 151.455 162.811 151.757 164.202 152.362C165.623 152.967 166.847 153.813 167.875 154.901C168.902 155.99 169.688 157.274 170.233 158.756C170.777 160.237 171.019 161.854 170.958 163.608L170.913 165.557H151.732L150.689 161.476H165.018L164.247 162.338V161.431C164.187 160.675 163.945 160.01 163.522 159.436C163.129 158.831 162.599 158.363 161.934 158.03C161.269 157.698 160.514 157.531 159.667 157.531C158.488 157.531 157.475 157.773 156.629 158.257C155.813 158.71 155.193 159.391 154.77 160.297C154.347 161.174 154.135 162.262 154.135 163.562C154.135 164.892 154.407 166.056 154.951 167.054C155.526 168.021 156.342 168.777 157.4 169.321C158.488 169.865 159.773 170.137 161.254 170.137C162.282 170.137 163.189 169.986 163.975 169.684C164.791 169.382 165.668 168.868 166.605 168.142L170.006 172.949C169.069 173.765 168.071 174.43 167.013 174.944C165.955 175.458 164.867 175.836 163.748 176.078C162.66 176.35 161.572 176.486 160.483 176.486Z" fill="#0DAEFF"/>
<path d="M137.743 176.031V151.953H144.999V176.031H137.743Z" fill="#0DAEFF"/>
<path d="M118.568 168.952L115.893 163.511L127.139 151.948H136.707L118.568 168.952ZM111.585 176.026V142.471H118.841V176.026H111.585ZM127.91 176.026L119.43 165.053L124.554 161.062L136.48 176.026H127.91Z" fill="#0DAEFF"/>
<path d="M100.58 176.032V142.477H107.835V176.032H100.58Z" fill="#0DAEFF"/>
<path d="M82.254 176.44C80.2286 176.44 78.4148 175.911 76.8126 174.853C75.2406 173.765 73.9861 172.284 73.0489 170.409C72.1118 168.505 71.6432 166.359 71.6432 163.97C71.6432 161.522 72.1118 159.36 73.0489 157.486C73.9861 155.612 75.2709 154.146 76.9033 153.088C78.5357 151.999 80.3949 151.455 82.4808 151.455C83.6295 151.455 84.6725 151.621 85.6096 151.954C86.577 152.286 87.4234 152.755 88.1489 153.36C88.8745 153.934 89.4942 154.614 90.0081 155.4C90.522 156.156 90.8999 156.972 91.1417 157.849L89.6453 157.667V151.954H96.8552V176.032H89.5093V170.228L91.1417 170.183C90.8999 171.029 90.5069 171.83 89.9627 172.586C89.4186 173.342 88.7535 174.007 87.9675 174.581C87.1816 175.156 86.3049 175.609 85.3375 175.942C84.3701 176.274 83.3423 176.44 82.254 176.44ZM84.2492 170.319C85.3678 170.319 86.3351 170.062 87.1513 169.548C87.9675 169.034 88.6024 168.308 89.0558 167.371C89.5093 166.404 89.736 165.27 89.736 163.97C89.736 162.67 89.5093 161.552 89.0558 160.615C88.6024 159.647 87.9675 158.907 87.1513 158.393C86.3351 157.849 85.3678 157.577 84.2492 157.577C83.1609 157.577 82.2087 157.849 81.3925 158.393C80.6065 158.907 79.9868 159.647 79.5333 160.615C79.0799 161.552 78.8531 162.67 78.8531 163.97C78.8531 165.27 79.0799 166.404 79.5333 167.371C79.9868 168.308 80.6065 169.034 81.3925 169.548C82.2087 170.062 83.1609 170.319 84.2492 170.319Z" fill="#0DAEFF"/>
<path d="M38.6866 176.037L29.1641 144.295H37.0088L41.77 160.982C41.9817 161.738 42.163 162.509 42.3142 163.295C42.4956 164.05 42.6316 164.776 42.7223 165.471C42.8432 166.166 42.9339 166.816 42.9944 167.421C43.0548 167.995 43.1153 168.479 43.1757 168.872H42.1782C42.3595 167.754 42.5107 166.756 42.6316 165.879C42.7828 165.003 42.949 164.186 43.1304 163.431C43.3118 162.645 43.5385 161.828 43.8106 160.982L48.5265 148.421H54.6934L59.3187 160.982C59.6814 161.98 59.9837 162.917 60.2256 163.793C60.4674 164.67 60.6488 165.517 60.7697 166.333C60.9209 167.119 61.0418 167.905 61.1325 168.691L60.2256 168.827C60.286 168.283 60.3314 167.784 60.3616 167.33C60.3918 166.847 60.4221 166.393 60.4523 165.97C60.5128 165.517 60.5732 165.048 60.6337 164.564C60.6941 164.081 60.7848 163.552 60.9057 162.977C61.0267 162.373 61.1929 161.692 61.4045 160.937L66.1204 144.295H73.7838L64.2613 176.037H58.3664L50.8391 157.762L51.7007 157.853L44.7628 176.037H38.6866Z" fill="#0DAEFF"/>
<circle cx="141.446" cy="146.173" r="3.86611" fill="#0DAEFF"/>
</svg>
