<svg width="120" height="120" viewBox="0 0 120 120" fill="none" xmlns="http://www.w3.org/2000/svg">
<rect width="120" height="120" fill="#F3F4F6"/>
<g clip-path="url(#clip0_892_34550)">
<path d="M89.8204 71.7785C95.1723 67.6406 98.3828 61.8669 98.3828 54.3478C98.3828 36.9493 81.2065 22.8418 60.0147 22.8418C38.8228 22.8418 21.6465 36.9461 21.6465 54.3446C21.6465 62.3918 25.3239 68.4424 31.3681 72.6254C26.905 76.1579 24.9149 81.5903 26.8599 86.1694C29.2976 91.9142 36.997 94.1425 44.0523 91.1478C46.168 90.2493 47.9842 88.9806 49.4268 87.4929C50.8243 92.4841 55.632 96.0392 61.1675 95.7751C66.7287 95.5111 71.195 91.4827 72.0838 86.3465C73.7003 88.5072 76.0414 90.3459 78.9138 91.5084C86.0206 94.384 93.6782 92.0269 96.0192 86.2402C98.0769 81.1556 95.3398 75.1146 89.8237 71.7753L89.8204 71.7785Z" fill="#E5E7EB"/>
<path d="M21.6476 55.8008C20.9681 44.3692 28.4131 34.3706 37.8707 28.6967C40.7012 26.9965 43.7507 25.6601 46.9226 24.7359C58.5474 21.3515 72.4069 23.0485 82.7436 29.4277C84.3762 30.4356 85.9348 31.5659 87.3967 32.8153C95.7627 39.9705 100.86 52.1266 96.4808 62.7917C95.9012 64.1989 95.2153 65.5321 94.2492 66.7074C92.3719 68.9937 91.0774 70.1949 89.2483 71.4217C90.4462 72.0271 91.4767 72.99 92.4943 73.8691C94.1398 75.2892 95.5244 77.0828 96.1524 79.163C97.2343 82.747 95.8336 86.8399 93.0513 89.3419C90.2691 91.844 86.2987 92.8197 82.5858 92.3431C78.873 91.8665 74.6715 88.9725 71.8507 86.5123" stroke="#CDCFD4" stroke-width="1.78251" stroke-miterlimit="10" stroke-linecap="round"/>
<path d="M22.6968 59.2285C24.3133 64.413 27.5335 69.0854 31.8002 72.4408C28.1678 73.8963 25.6271 77.68 25.2826 81.5796C24.9412 85.476 26.9442 89.4916 30.2674 91.5557C33.5906 93.623 38.2856 93.2978 41.8406 91.6684C44.6067 90.4029 46.468 89.498 48.838 87.4178C48.9668 87.3051 49.1633 87.3502 49.2309 87.5079C51.2789 92.2383 56.4569 95.4488 61.6092 95.13C66.8806 94.8048 70.5206 91.6228 71.8506 86.5124" stroke="#CDCFD4" stroke-width="1.78251" stroke-miterlimit="10" stroke-linecap="round"/>
<path d="M55.7659 58.3621C55.7659 57.622 56.0079 57.0099 56.4918 56.526C56.9758 56.0136 57.5878 55.7573 58.328 55.7573C59.4952 55.7573 60.5484 55.5865 61.4879 55.2449C62.4273 54.8749 63.1675 54.2913 63.7083 53.4942C64.2777 52.6971 64.5624 51.6438 64.5624 50.3343C64.5624 49.3664 64.3204 48.5124 63.8364 47.7722C63.381 47.0321 62.7404 46.4485 61.9149 46.0215C61.1178 45.5945 60.2068 45.381 59.182 45.381C58.3849 45.381 57.6305 45.5233 56.9189 45.808C56.2356 46.0927 55.6093 46.477 55.04 46.9609C54.5845 47.3595 54.0294 47.6584 53.3747 47.8576C52.7484 48.0284 52.1079 47.8719 51.4531 47.3879C50.7699 46.8755 50.3998 46.2635 50.3429 45.5518C50.2859 44.8401 50.5564 44.1853 51.1542 43.5875C52.179 42.5342 53.3747 41.7229 54.7411 41.1536C56.136 40.5557 57.6163 40.2568 59.182 40.2568C61.1463 40.2568 62.9112 40.7123 64.477 41.6233C66.0711 42.5058 67.3379 43.7014 68.2774 45.2102C69.2168 46.7189 69.6865 48.427 69.6865 50.3343C69.6865 51.7577 69.473 53.0245 69.046 54.1347C68.619 55.2165 68.0069 56.1559 67.2098 56.953C66.4412 57.7216 65.5302 58.3479 64.477 58.8318C63.4521 59.2873 62.3277 59.6147 61.1036 59.814C61.0466 59.8424 60.9897 59.8709 60.9328 59.8994C60.9043 59.9278 60.8901 59.9705 60.8901 60.0275V61.6074C60.8901 62.3476 60.6481 62.9738 60.1641 63.4863C59.6802 63.9702 59.0681 64.2122 58.328 64.2122C57.5878 64.2122 56.9758 63.9702 56.4918 63.4863C56.0079 62.9738 55.7659 62.3476 55.7659 61.6074V58.3621ZM58.1145 71.8557C57.2889 71.8557 56.6484 71.6422 56.1929 71.2152C55.7659 70.7597 55.5524 70.1192 55.5524 69.2936V68.5677C55.5524 67.7421 55.7659 67.1159 56.1929 66.6888C56.6484 66.2334 57.2889 66.0056 58.1145 66.0056H58.6696C59.4952 66.0056 60.1214 66.2334 60.5484 66.6888C61.0039 67.1159 61.2317 67.7421 61.2317 68.5677V69.2936C61.2317 70.1192 61.0039 70.7597 60.5484 71.2152C60.1214 71.6422 59.4952 71.8557 58.6696 71.8557H58.1145Z" fill="#CDCFD4"/>
</g>
<defs>
<clipPath id="clip0_892_34550">
<rect width="79.0549" height="76.2598" fill="white" transform="translate(20.3179 21.7402)"/>
</clipPath>
</defs>
</svg>
