<svg width="20" height="22" viewBox="0 0 20 22" fill="none" xmlns="http://www.w3.org/2000/svg">
<path fill-rule="evenodd" clip-rule="evenodd" d="M10 20.9497L10.7522 21.691C10.6535 21.7889 10.5362 21.8667 10.407 21.9197C10.2779 21.9727 10.1394 22 9.99947 22C9.85959 22 9.72108 21.9727 9.5919 21.9197C9.46272 21.8667 9.3454 21.7889 9.24669 21.691L9.24031 21.6836L9.22225 21.6658L9.15638 21.5997C8.78183 21.2184 8.41345 20.8312 8.05138 20.4384C7.1423 19.454 6.27182 18.4354 5.44188 17.385C4.49413 16.1775 3.52512 14.8126 2.78881 13.4644C2.06844 12.1424 1.5 10.7103 1.5 9.39988C1.5 4.634 5.3165 1 10 1C14.6835 1 18.5 4.634 18.5 9.39988C18.5 10.7103 17.9316 12.1424 17.2112 13.4633C16.4749 14.8136 15.5069 16.1775 14.5581 17.385C13.3972 18.8546 12.1573 20.2615 10.8436 21.5997L10.7778 21.6658L10.7597 21.6836L10.7533 21.69L10 20.9497ZM10 12.5498C10.8454 12.5498 11.6561 12.218 12.2539 11.6272C12.8517 11.0365 13.1875 10.2353 13.1875 9.39988C13.1875 8.56446 12.8517 7.76326 12.2539 7.17252C11.6561 6.58179 10.8454 6.24992 10 6.24992C9.15462 6.24992 8.34387 6.58179 7.7461 7.17252C7.14832 7.76326 6.8125 8.56446 6.8125 9.39988C6.8125 10.2353 7.14832 11.0365 7.7461 11.6272C8.34387 12.218 9.15462 12.5498 10 12.5498Z" fill="#9CA1AB" style="mix-blend-mode:luminosity"/>
</svg>
