<svg width="20" height="20" viewBox="0 0 20 20" fill="none" xmlns="http://www.w3.org/2000/svg">
<path fill-rule="evenodd" clip-rule="evenodd" d="M9.68805 17.0789L10.2433 17.6273C10.1704 17.6998 10.0838 17.7573 9.98849 17.7965C9.89314 17.8357 9.79091 17.8559 9.68766 17.8559C9.58441 17.8559 9.48218 17.8357 9.38683 17.7965C9.29148 17.7573 9.20489 17.6998 9.13202 17.6273L9.12732 17.6219L9.11398 17.6087L9.06536 17.5597C8.7889 17.2777 8.517 16.9913 8.24974 16.7006C7.57874 15.9724 6.93622 15.2189 6.32363 14.4418C5.62408 13.5485 4.90884 12.5387 4.36536 11.5413C3.83364 10.5634 3.41406 9.50387 3.41406 8.53446C3.41406 5.00871 6.23108 2.32031 9.68805 2.32031C13.145 2.32031 15.962 5.00871 15.962 8.53446C15.962 9.50387 15.5425 10.5634 15.0108 11.5406C14.4673 12.5395 13.7528 13.5485 13.0525 14.4418C12.1956 15.529 11.2804 16.5698 10.3107 17.5597L10.2621 17.6087L10.2488 17.6219L10.2441 17.6265L9.68805 17.0789ZM9.68805 10.8648C10.312 10.8648 10.9105 10.6193 11.3517 10.1822C11.7929 9.74522 12.0408 9.1525 12.0408 8.53446C12.0408 7.91643 11.7929 7.3237 11.3517 6.88669C10.9105 6.44967 10.312 6.20416 9.68805 6.20416C9.06407 6.20416 8.46564 6.44967 8.02441 6.88669C7.58318 7.3237 7.33531 7.91643 7.33531 8.53446C7.33531 9.1525 7.58318 9.74522 8.02441 10.1822C8.46564 10.6193 9.06407 10.8648 9.68805 10.8648Z" fill="#70CFFF"/>
</svg>
