<svg width="64" height="64" viewBox="0 0 64 64" fill="none" xmlns="http://www.w3.org/2000/svg">
<rect x="2" y="2" width="60" height="60" rx="30" fill="#0DAEFF"/>
<rect x="2" y="2" width="60" height="60" rx="30" stroke="#F7F8FA" stroke-width="4"/>
<path fill-rule="evenodd" clip-rule="evenodd" d="M31.834 43.3676L32.7632 44.2854C32.6413 44.4067 32.4964 44.5029 32.3368 44.5685C32.1772 44.6342 32.0061 44.668 31.8333 44.668C31.6605 44.668 31.4894 44.6342 31.3299 44.5685C31.1703 44.5029 31.0254 44.4067 30.9034 44.2854L30.8955 44.2763L30.8732 44.2542L30.7919 44.1723C30.3292 43.7002 29.8741 43.2209 29.4269 42.7345C28.3039 41.5158 27.2286 40.2547 26.2034 38.9542C25.0326 37.4592 23.8356 35.7692 22.926 34.1C22.0362 32.4634 21.334 30.6902 21.334 29.0678C21.334 23.1672 26.0485 18.668 31.834 18.668C37.6195 18.668 42.334 23.1672 42.334 29.0678C42.334 30.6902 41.6318 32.4634 40.7419 34.0987C39.8324 35.7705 38.6367 37.4592 37.4646 38.9542C36.0305 40.7737 34.4988 42.5156 32.8761 44.1723L32.7947 44.2542L32.7724 44.2763L32.7645 44.2841L31.834 43.3676ZM31.834 32.9678C32.8783 32.9678 33.8798 32.5569 34.6182 31.8255C35.3566 31.0941 35.7715 30.1021 35.7715 29.0678C35.7715 28.0335 35.3566 27.0415 34.6182 26.3101C33.8798 25.5788 32.8783 25.1679 31.834 25.1679C30.7897 25.1679 29.7882 25.5788 29.0498 26.3101C28.3113 27.0415 27.8965 28.0335 27.8965 29.0678C27.8965 30.1021 28.3113 31.0941 29.0498 31.8255C29.7882 32.5569 30.7897 32.9678 31.834 32.9678Z" fill="white"/>
</svg>
