<svg width="28" height="28" viewBox="0 0 28 28" fill="none" xmlns="http://www.w3.org/2000/svg">
<g id="ic_checkbox">
<path id="Vector" d="M7.875 3.5C6.71468 3.5 5.60188 3.96094 4.78141 4.78141C3.96094 5.60188 3.5 6.71468 3.5 7.875V20.125C3.5 21.2853 3.96094 22.3981 4.78141 23.2186C5.60188 24.0391 6.71468 24.5 7.875 24.5H20.125C21.2853 24.5 22.3981 24.0391 23.2186 23.2186C24.0391 22.3981 24.5 21.2853 24.5 20.125V7.875C24.5 6.71468 24.0391 5.60188 23.2186 4.78141C22.3981 3.96094 21.2853 3.5 20.125 3.5H7.875ZM18.9945 11.9945L12.8695 18.1195C12.7882 18.201 12.6917 18.2656 12.5854 18.3097C12.4791 18.3539 12.3651 18.3766 12.25 18.3766C12.1349 18.3766 12.0209 18.3539 11.9146 18.3097C11.8083 18.2656 11.7118 18.201 11.6305 18.1195L9.0055 15.4945C8.92415 15.4131 8.85961 15.3166 8.81558 15.2103C8.77156 15.104 8.74889 14.9901 8.74889 14.875C8.74889 14.7599 8.77156 14.646 8.81558 14.5397C8.85961 14.4334 8.92415 14.3369 9.0055 14.2555C9.1698 14.0912 9.39264 13.9989 9.625 13.9989C9.74005 13.9989 9.85398 14.0216 9.96027 14.0656C10.0666 14.1096 10.1631 14.1741 10.2445 14.2555L12.25 16.2628L17.7555 10.7555C17.9198 10.5912 18.1426 10.4989 18.375 10.4989C18.6074 10.4989 18.8302 10.5912 18.9945 10.7555C19.1588 10.9198 19.2511 11.1426 19.2511 11.375C19.2511 11.6074 19.1588 11.8302 18.9945 11.9945Z" fill="#E5E7EB"/>
<rect id="Rectangle 34624718" x="5.83301" y="9.3335" width="15.1667" height="11.6667" fill="#E5E7EB"/>
</g>
</svg>
