<svg width="36" height="36" viewBox="0 0 36 36" fill="none" xmlns="http://www.w3.org/2000/svg">
<circle cx="18" cy="18" r="18" fill="#F3F4F6"/>
<path d="M24.7544 13.9806C25.3356 14.1754 25.8409 14.5478 26.199 15.0453C26.5571 15.5428 26.7498 16.1402 26.75 16.7531C26.75 18.0481 25.9056 19.1362 24.735 19.5256C24.76 19.6831 24.785 19.8462 24.785 20.0162C24.785 21.6381 23.4775 22.9525 21.8637 22.9525C21.175 22.9525 20.5556 22.7006 20.0556 22.3044C19.8727 22.6983 19.5812 23.0318 19.2153 23.2658C18.8494 23.4997 18.4243 23.6243 17.99 23.625C17.0763 23.625 16.2944 23.0844 15.925 22.3044C15.4149 22.7222 14.7762 22.9512 14.1169 22.9525C12.5031 22.9525 11.195 21.6381 11.195 20.0162C11.195 19.8525 11.2188 19.7 11.2425 19.5425L11.245 19.5256C10.6639 19.3308 10.1587 18.9583 9.80077 18.4608C9.44281 17.9634 9.25015 17.366 9.25 16.7531C9.25 15.4581 10.0881 14.3706 11.2519 13.9744C11.2223 13.8124 11.2056 13.6484 11.2019 13.4838C11.2019 11.8619 12.51 10.5475 14.1238 10.5475C14.8119 10.5475 15.4319 10.7994 15.9319 11.195C16.1148 10.8012 16.4064 10.4678 16.7723 10.234C17.1382 10.0001 17.5633 9.87561 17.9975 9.875C18.9175 9.875 19.6994 10.4156 20.075 11.2019C20.5851 10.784 21.2238 10.5551 21.8831 10.5537C23.4969 10.5537 24.805 11.8681 24.805 13.49C24.805 13.6538 24.7812 13.8062 24.7575 13.9637L24.7544 13.9806ZM12.375 24.5625C12.375 24.9769 12.2104 25.3743 11.9174 25.6674C11.6243 25.9604 11.2269 26.125 10.8125 26.125C10.3981 26.125 10.0007 25.9604 9.70765 25.6674C9.41462 25.3743 9.25 24.9769 9.25 24.5625C9.25 24.1481 9.41462 23.7507 9.70765 23.4576C10.0007 23.1646 10.3981 23 10.8125 23C11.2269 23 11.6243 23.1646 11.9174 23.4576C12.2104 23.7507 12.375 24.1481 12.375 24.5625Z" fill="#CDCFD4"/>
</svg>
