<svg width="40" height="40" viewBox="0 0 40 40" fill="none" xmlns="http://www.w3.org/2000/svg">
<path d="M20.0014 36.122C27.9757 36.122 34.4402 32.1713 34.4402 27.2978C34.4402 22.4244 27.9757 18.4736 20.0014 18.4736C12.027 18.4736 5.5625 22.4244 5.5625 27.2978C5.5625 32.1713 12.027 36.122 20.0014 36.122Z" fill="url(#paint0_radial_6736_65169)"/>
<path d="M20.0003 33.6648C29.0397 33.6648 36.3677 29.5937 36.3677 24.5718C36.3677 19.5498 29.0397 15.4788 20.0003 15.4788C10.9608 15.4788 3.63281 19.5498 3.63281 24.5718C3.63281 29.5937 10.9608 33.6648 20.0003 33.6648Z" fill="url(#paint1_linear_6736_65169)"/>
<path d="M20.0006 31.1378C27.4331 31.1378 33.4583 28.0393 33.4583 24.2171C33.4583 20.3949 27.4331 17.2964 20.0006 17.2964C12.5682 17.2964 6.54297 20.3949 6.54297 24.2171C6.54297 28.0393 12.5682 31.1378 20.0006 31.1378Z" fill="url(#paint2_linear_6736_65169)"/>
<path d="M9.92458 23.0557C9.92458 23.0557 13.0006 18.9011 19.8199 18.901C26.6393 18.9009 28.7411 21.2099 28.7411 21.2099" stroke="#FFE8B6" stroke-width="0.924449" stroke-linecap="round"/>
<path d="M13.1345 25.5067C13.1345 25.5067 13.9764 24.0244 16.066 22.9985C18.1556 21.9726 19.7314 22.2675 19.7314 22.2675" stroke="#FFE8B6" stroke-width="0.924449" stroke-linecap="round"/>
<path d="M32.1357 24.4195C31.9808 23.7761 31.4822 23.2318 30.7068 22.8598C29.9314 22.4877 28.9164 22.3057 27.7982 22.3383C26.6801 22.3708 25.5124 22.6163 24.4522 23.0418C23.3919 23.4673 22.49 24.0523 21.8675 24.7183L26.8896 26.8537L32.1357 24.4195Z" fill="#FCD53F"/>
<path d="M30.6704 24.2684C30.6704 24.2684 29.4223 25.9747 26.7391 27.2271C24.0558 28.4795 22.1993 28.2227 22.1993 28.2227" stroke="#FFE8B6" stroke-width="0.924449" stroke-linecap="round"/>
<path d="M29.2789 23.2173C29.2789 23.2173 28.2599 24.6106 26.0689 25.6332C23.8779 26.6558 22.362 26.4461 22.362 26.4461" stroke="#FFE8B6" stroke-width="0.924449" stroke-linecap="round"/>
<path d="M15.7236 22.8975C16.8375 22.5514 18.2665 22.4858 19.7676 22.7813C22.8654 23.3912 25.0964 25.3087 24.751 27.0645C24.6406 27.6251 24.2807 28.1009 23.7412 28.4698C23.3385 30.1822 20.5808 31.0807 17.5225 30.4786C15.873 30.1538 14.4692 29.4578 13.5693 28.6133C10.8212 28.3652 8.73862 27.1817 8.73828 25.7559C8.73828 24.1498 11.3802 22.8478 14.6396 22.8477C15.0099 22.8477 15.3723 22.8654 15.7236 22.8975Z" fill="url(#paint3_linear_6736_65169)"/>
<path d="M11.1993 25.0099C11.1993 25.0099 13.8183 23.9907 17.7208 24.507C21.6233 25.0233 23.5198 26.6391 23.5198 26.6391" stroke="#FFE8B6" stroke-width="0.924449" stroke-linecap="round"/>
<path d="M11.6129 26.7805C11.6129 26.7805 13.8953 25.8923 17.2962 26.3422C20.6972 26.7921 22.3499 28.2003 22.3499 28.2003" stroke="#FFE8B6" stroke-width="0.924449" stroke-linecap="round"/>
<path d="M12.2761 28.3208C12.2761 28.3208 14.1398 27.5956 16.9168 27.963C19.6937 28.3303 21.0432 29.4801 21.0432 29.4801" stroke="#FFE8B6" stroke-width="0.924449" stroke-linecap="round"/>
<path d="M14.3995 11.9812C14.3109 13.8054 13.923 19.4158 14.8215 21.4257" stroke="url(#paint4_linear_6736_65169)" stroke-width="1.04001" stroke-linecap="round"/>
<path d="M28.6788 4.33646C29.2793 4.05777 29.9387 4.28876 30.1515 4.85209C30.3642 5.41548 30.0499 6.09863 29.4493 6.37748L18.9347 11.2593C18.8937 12.6854 17.5841 13.6835 15.8897 14.4703L12.1144 16.2222C12.1042 16.2276 12.0946 16.2349 12.0841 16.2398C11.7839 16.379 11.4541 16.2636 11.3478 15.982C11.2414 15.7003 11.399 15.3587 11.6993 15.2193L11.7003 15.2183V15.2163L15.5011 13.4507L15.5069 13.4478C15.6499 13.3807 15.7676 13.2646 15.8331 13.1226C15.8989 12.9797 15.9066 12.8233 15.8556 12.688C15.8045 12.5528 15.6987 12.4492 15.5606 12.4009C15.4226 12.3526 15.2634 12.3623 15.1192 12.4292L15.1202 12.4302L11.3136 14.1978L11.3126 14.1968C11.0129 14.3351 10.6846 14.22 10.5782 13.939C10.4718 13.6573 10.6286 13.3158 10.9288 13.1763C10.9317 13.175 10.9347 13.1737 10.9376 13.1724L14.7296 11.4117L14.7355 11.4087L14.837 11.3501C14.9341 11.282 15.0132 11.1888 15.0626 11.0816C15.1283 10.9387 15.1361 10.7822 15.0851 10.647C15.0339 10.512 14.928 10.4092 14.7901 10.3609C14.652 10.3126 14.4929 10.3222 14.3487 10.3892L14.3497 10.3912L10.544 12.1587L10.5421 12.1558C10.2421 12.2946 9.91316 12.1792 9.80674 11.898C9.70037 11.6164 9.85722 11.2748 10.1573 11.1353C10.1693 11.1297 10.1824 11.1264 10.1944 11.1216L13.9464 9.37846C13.9522 9.37556 13.9581 9.37144 13.964 9.36869C15.6591 8.58168 17.2201 8.24813 18.1651 9.2183L28.6622 4.34428C28.6676 4.34167 28.6733 4.33901 28.6788 4.33646Z" fill="url(#paint5_linear_6736_65169)"/>
<path d="M13.9828 11.3818C12.3998 13.5581 11.9868 20.7332 12.7839 23.3609" stroke="url(#paint6_linear_6736_65169)" stroke-width="1.04001" stroke-linecap="round"/>
<path d="M25.6115 22.9214C25.6115 24.4749 23.2159 25.7343 20.2608 25.7343C17.3057 25.7343 14.9102 24.4749 14.9102 22.9214C14.9102 21.3678 17.1611 18.8906 20.1162 18.8906C23.0713 18.8906 25.6115 21.3678 25.6115 22.9214Z" fill="url(#paint7_linear_6736_65169)"/>
<path d="M20.1543 20.9121L20.6492 20.1675L22.5353 20.823L22.0404 21.5675L20.1543 20.9121Z" fill="#04835F"/>
<path d="M18.2422 20.7554L18.5472 21.4216L17.2762 22.4525L16.9712 21.7862L18.2422 20.7554Z" fill="#04835F"/>
<defs>
<radialGradient id="paint0_radial_6736_65169" cx="0" cy="0" r="1" gradientUnits="userSpaceOnUse" gradientTransform="translate(20.0014 27.2978) rotate(90) scale(10.3622 16.9555)">
<stop stop-color="#3D3E41"/>
<stop offset="1" stop-color="#F1F1F1"/>
</radialGradient>
<linearGradient id="paint1_linear_6736_65169" x1="20.0003" y1="15.4788" x2="20.0003" y2="112.311" gradientUnits="userSpaceOnUse">
<stop offset="0.0997619" stop-color="#EFEFEF"/>
<stop offset="1" stop-color="#70CFFF"/>
</linearGradient>
<linearGradient id="paint2_linear_6736_65169" x1="20.0006" y1="17.2964" x2="20.0006" y2="74.3046" gradientUnits="userSpaceOnUse">
<stop offset="0.112904" stop-color="#FCD53F"/>
<stop offset="0.797761" stop-color="#70CFFF"/>
</linearGradient>
<linearGradient id="paint3_linear_6736_65169" x1="17.8497" y1="26.2177" x2="18.1402" y2="29.6539" gradientUnits="userSpaceOnUse">
<stop stop-color="#FCD53F"/>
<stop offset="1" stop-color="#E2D462"/>
</linearGradient>
<linearGradient id="paint4_linear_6736_65169" x1="14.4637" y1="12.2387" x2="14.4637" y2="20.8436" gradientUnits="userSpaceOnUse">
<stop stop-color="#FCD53F"/>
<stop offset="0.764423" stop-color="#EEC730"/>
<stop offset="1" stop-color="#FCD53F"/>
</linearGradient>
<linearGradient id="paint5_linear_6736_65169" x1="19.9957" y1="9.47429" x2="18.738" y2="69.1638" gradientUnits="userSpaceOnUse">
<stop stop-color="#99AAB5"/>
<stop offset="0.360517" stop-color="#70CFFF"/>
</linearGradient>
<linearGradient id="paint6_linear_6736_65169" x1="13.0546" y1="11.7559" x2="13.0546" y2="24.2548" gradientUnits="userSpaceOnUse">
<stop stop-color="#FCD53F"/>
<stop offset="0.747853" stop-color="#EEC730"/>
<stop offset="1" stop-color="#FCD53F"/>
</linearGradient>
<linearGradient id="paint7_linear_6736_65169" x1="20.2608" y1="18.8906" x2="20.2608" y2="50.7227" gradientUnits="userSpaceOnUse">
<stop offset="0.0894718" stop-color="#EC5001"/>
<stop offset="1" stop-color="#70CFFF"/>
</linearGradient>
</defs>
</svg>
