<svg width="40" height="40" viewBox="0 0 40 40" fill="none" xmlns="http://www.w3.org/2000/svg">
<path d="M32.9082 4.97376C33.1282 4.66457 33.6256 4.822 33.5869 5.19934C33.4373 6.6504 33.0402 9.05297 31.9883 11.59C31.4135 12.976 30.6103 14.2991 29.8047 15.4445C32.3174 17.1131 33.9746 19.9677 33.9746 23.2101C33.9744 28.3553 29.8034 32.5264 24.6582 32.5265C23.6345 32.5265 22.6499 32.3589 21.7285 32.0538C20.0606 33.6258 17.8146 34.5909 15.3418 34.5909C10.1965 34.5909 6.02539 30.4199 6.02539 25.2745C6.02546 22.9069 6.90934 20.7462 8.36426 19.1027C8.01603 18.1192 7.8252 17.0609 7.8252 15.9581C7.82533 10.7564 12.0424 6.53925 17.2441 6.53919C20.5757 6.53919 23.5013 8.27062 25.1758 10.881C25.6337 10.7105 26.129 10.5185 26.6631 10.3019C29.6416 9.09362 31.8242 6.4975 32.9082 4.97376Z" fill="url(#paint0_linear_6736_65164)"/>
<defs>
<linearGradient id="paint0_linear_6736_65164" x1="20" y1="4.80969" x2="20" y2="207.616" gradientUnits="userSpaceOnUse">
<stop offset="0.05" stop-color="#E5E7EB"/>
<stop offset="1" stop-color="#70CFFF"/>
</linearGradient>
</defs>
</svg>
