<svg width="24" height="24" viewBox="0 0 24 24" fill="none" xmlns="http://www.w3.org/2000/svg">
<path d="M12.97 2.59022C12.699 2.36047 12.3553 2.23438 12 2.23438C11.6447 2.23437 11.301 2.36047 11.03 2.59022L3.53 8.95322C3.36393 9.09401 3.23049 9.26927 3.13897 9.46683C3.04744 9.66438 3.00002 9.87949 3 10.0972V19.5002C3 19.898 3.15804 20.2796 3.43934 20.5609C3.72064 20.8422 4.10218 21.0002 4.5 21.0002H9.25C9.44891 21.0002 9.63968 20.9212 9.78033 20.7805C9.92098 20.6399 10 20.4491 10 20.2502V14.0002H14V20.2502C14 20.6642 14.336 21.0002 14.75 21.0002H19.5C19.8978 21.0002 20.2794 20.8422 20.5607 20.5609C20.842 20.2796 21 19.898 21 19.5002V10.0972C21 9.87949 20.9526 9.66438 20.861 9.46683C20.7695 9.26927 20.6361 9.09401 20.47 8.95322L12.97 2.59022Z" fill="#CDCFD4"/>
</svg>
