<svg width="32" height="32" viewBox="0 0 32 32" fill="none" xmlns="http://www.w3.org/2000/svg">
<circle cx="16" cy="16" r="15" fill="#49C06B" stroke="white" stroke-width="2"/>
<path d="M19.8239 14.7042H18.9002L19.4052 15.4776L21.6957 18.9851L21.6957 18.9851L21.6984 18.9892C21.8298 19.1861 21.6812 19.4335 21.4743 19.4335H17.5025H17.0025V19.9335V21.5257C17.0025 22.119 16.5297 22.5864 15.9755 22.5864C15.4212 22.5864 14.9485 22.119 14.9485 21.5257V19.9335V19.4335H14.4485H10.5307C10.3194 19.4335 10.1745 19.1877 10.3016 18.9928L10.3016 18.9928L10.3047 18.988L12.5412 15.4726L13.0301 14.7042H12.1194H12.0885C11.8785 14.7042 11.7257 14.4475 11.8615 14.2484L11.8618 14.2479L15.7483 8.5341C15.7483 8.53399 15.7484 8.53389 15.7485 8.53379C15.7745 8.49581 15.8083 8.46588 15.8463 8.44561L15.6111 8.00437L15.8463 8.44561C15.8844 8.42531 15.926 8.41504 15.9678 8.41504C16.0095 8.41504 16.0511 8.42531 16.0892 8.44561C16.1273 8.46593 16.1612 8.49598 16.1873 8.5341L16.1878 8.53484L20.1049 14.2484C20.105 14.2486 20.1051 14.2487 20.1052 14.2489C20.2454 14.4553 20.0865 14.7042 19.8856 14.7042H19.8239Z" fill="white" stroke="white"/>
</svg>
