<svg width="24" height="24" viewBox="0 0 24 24" fill="none" xmlns="http://www.w3.org/2000/svg">
<path d="M11.7959 16.4082C12.1035 16.4082 12.3672 16.3103 12.5957 16.0993L19.293 10.2383C19.4863 10.0725 19.5918 9.86161 19.5918 9.613C19.5918 9.11579 19.1348 8.71652 18.5459 8.71652C18.2559 8.71652 18.001 8.82198 17.7988 8.98772L11.7959 14.2687L5.79297 8.98772C5.59082 8.82199 5.32715 8.71652 5.0459 8.71652C4.45703 8.71652 4 9.11579 4 9.613C4 9.86161 4.10547 10.0725 4.29883 10.2383L10.9873 16.0993C11.2246 16.3103 11.4883 16.4082 11.7959 16.4082Z" fill="#383C44"/>
</svg>
