<svg width="40" height="40" viewBox="0 0 40 40" fill="none" xmlns="http://www.w3.org/2000/svg">
<ellipse cx="6.35007" cy="31.9811" rx="1.48899" ry="1.97179" transform="rotate(-17.1561 6.35007 31.9811)" fill="url(#paint0_linear_6736_65166)"/>
<path d="M11.5041 23.1817C3.20763 25.0716 5.55139 31.8949 7.67992 33.6077C9.80845 35.3205 17.906 38.3293 25.6932 31.2651C33.4804 24.201 34.2175 4.97423 26.489 4.5486C18.5332 4.11045 26.9655 19.6598 11.5041 23.1817Z" fill="url(#paint1_linear_6736_65166)"/>
<path d="M16.6591 21.0995C20.0161 20.7375 25.8093 20.6732 31.0243 21.2938C31.0413 21.2959 31.0583 21.2968 31.0751 21.2987C30.0983 25.2078 28.288 28.9126 25.6933 31.2665C17.9063 38.3305 9.8084 35.3221 7.6796 33.6093C5.55108 31.8964 3.20734 25.0734 11.5038 23.1835C13.6455 22.6956 15.3273 21.9744 16.6591 21.0995Z" fill="url(#paint2_linear_6736_65166)"/>
<path d="M31.8276 31.4683C26.1881 26.8518 32.2398 20.9113 21.7188 20.9113C23.0712 18.9992 27.3977 17.966 32.5116 20.3018C37.2622 22.4717 35.9083 28.7675 33.1636 31.4358C32.7967 31.7925 32.2236 31.7924 31.8276 31.4683Z" fill="#FEEFC2"/>
<path d="M18.0694 17.0417C18.9283 17.4118 18.7697 19.8901 16.877 20.9525C18.4097 22.7383 21.5312 25.4061 21.7551 21.7917C22.035 17.2737 17.4058 16.7557 18.0694 17.0417Z" fill="#FCD53F"/>
<path d="M10.1526 19.2799C14.2747 17.2317 18.0229 17.1705 21.7041 20.8807C21.7462 20.9231 21.8204 20.8886 21.8108 20.8296C21.4806 18.7965 20.641 14.5001 16.2172 13.7306C12.8513 13.1451 10.1387 15.4885 8.68842 18.0379C8.15404 18.9773 9.18473 19.7608 10.1526 19.2799Z" fill="#FEEFC2"/>
<defs>
<linearGradient id="paint0_linear_6736_65166" x1="5.26197" y1="28.8751" x2="6.14846" y2="36.4205" gradientUnits="userSpaceOnUse">
<stop offset="0.125585" stop-color="#F9C23C"/>
<stop offset="1" stop-color="#E0F5FF"/>
</linearGradient>
<linearGradient id="paint1_linear_6736_65166" x1="22.9577" y1="3.72402" x2="18.2309" y2="41.9318" gradientUnits="userSpaceOnUse">
<stop stop-color="#FEEFC2"/>
<stop offset="0.738443" stop-color="#FCD53F"/>
</linearGradient>
<linearGradient id="paint2_linear_6736_65166" x1="20.9872" y1="20.8265" x2="17.0633" y2="42.3356" gradientUnits="userSpaceOnUse">
<stop offset="0.328146" stop-color="#FCD53F"/>
<stop offset="0.914865" stop-color="#E0F5FF"/>
</linearGradient>
</defs>
</svg>
