<svg width="32" height="32" viewBox="0 0 32 32" fill="none" xmlns="http://www.w3.org/2000/svg">
<circle cx="16" cy="16" r="15" fill="#F0C507" stroke="white" stroke-width="2"/>
<path d="M11.6833 18.1426H11.1833V18.6426V22.5442C11.1833 22.5594 11.1773 22.574 11.1665 22.5848C11.1558 22.5955 11.1412 22.6016 11.126 22.6016C11.1108 22.6016 11.0962 22.5955 11.0854 22.5848C11.0746 22.574 11.0686 22.5594 11.0686 22.5442V10.282C11.0686 10.2668 11.0746 10.2522 11.0854 10.2414C11.0962 10.2307 11.1108 10.2246 11.126 10.2246H21.7158C21.7263 10.2246 21.7366 10.2275 21.7456 10.233L22.006 9.80618L21.7456 10.233C21.7546 10.2385 21.7619 10.2463 21.7667 10.2557C21.7715 10.2651 21.7737 10.2756 21.7729 10.2861C21.7722 10.2965 21.7686 10.3066 21.7626 10.3151C21.7625 10.3152 21.7625 10.3152 21.7625 10.3153L19.2068 13.893L18.9992 14.1836L19.2068 14.4742L21.7625 18.0519C21.7625 18.052 21.7626 18.0521 21.7626 18.0521C21.7686 18.0607 21.7722 18.0707 21.7729 18.0811C21.7737 18.0916 21.7715 18.1021 21.7667 18.1115C21.7619 18.1208 21.7546 18.1287 21.7456 18.1342C21.7366 18.1397 21.7263 18.1426 21.7158 18.1426H11.6833Z" fill="white" stroke="white"/>
</svg>
