<svg width="24" height="24" viewBox="0 0 24 24" fill="none" xmlns="http://www.w3.org/2000/svg">
<g clip-path="url(#clip0_901_35669)">
<path d="M11.9998 1.99902C12.265 1.99902 12.5193 2.10438 12.7069 2.29192C12.8944 2.47945 12.9998 2.73381 12.9998 2.99902V3.05402C15.0286 3.28144 16.92 4.19159 18.3636 5.6352C19.8072 7.07881 20.7173 8.97016 20.9448 10.999H20.9998C21.265 10.999 21.5193 11.1044 21.7069 11.2919C21.8944 11.4795 21.9998 11.7338 21.9998 11.999C21.9998 12.2642 21.8944 12.5186 21.7069 12.7061C21.5193 12.8937 21.265 12.999 20.9998 12.999H20.9448C20.7173 15.0279 19.8072 16.9192 18.3636 18.3628C16.92 19.8065 15.0286 20.7166 12.9998 20.944V20.999C12.9998 21.2642 12.8944 21.5186 12.7069 21.7061C12.5193 21.8937 12.265 21.999 11.9998 21.999C11.7345 21.999 11.4802 21.8937 11.2926 21.7061C11.1051 21.5186 10.9998 21.2642 10.9998 20.999V20.944C8.97089 20.7166 7.07954 19.8065 5.63593 18.3628C4.19232 16.9192 3.28217 15.0279 3.05476 12.999H2.99976C2.73454 12.999 2.48019 12.8937 2.29265 12.7061C2.10511 12.5186 1.99976 12.2642 1.99976 11.999C1.99976 11.7338 2.10511 11.4795 2.29265 11.2919C2.48019 11.1044 2.73454 10.999 2.99976 10.999H3.05476C3.28217 8.97016 4.19232 7.07881 5.63593 5.6352C7.07954 4.19159 8.97089 3.28144 10.9998 3.05402V2.99902C10.9998 2.73381 11.1051 2.47945 11.2926 2.29192C11.4802 2.10438 11.7345 1.99902 11.9998 1.99902ZM12.9998 5.06902V5.99902C12.9995 6.2539 12.9019 6.49905 12.7269 6.68439C12.5519 6.86973 12.3128 6.98126 12.0584 6.99619C11.8039 7.01113 11.5534 6.92835 11.3579 6.76476C11.1625 6.60117 11.0369 6.36912 11.0068 6.11602L10.9998 5.99902V5.06902C9.54754 5.27935 8.19802 5.94033 7.1416 6.95872C6.08517 7.97711 5.37516 9.3015 5.11176 10.745L5.07076 10.999H5.99976C6.25463 10.9993 6.49979 11.0969 6.68512 11.2719C6.87046 11.4468 6.98199 11.686 6.99693 11.9404C7.01186 12.1949 6.92908 12.4454 6.76549 12.6409C6.6019 12.8363 6.36985 12.9619 6.11676 12.992L5.99976 12.999H5.06976C5.28008 14.4512 5.94106 15.8008 6.95945 16.8572C7.97784 17.9136 9.30223 18.6236 10.7458 18.887L10.9998 18.928V17.999C11 17.7441 11.0976 17.499 11.2726 17.3137C11.4476 17.1283 11.6867 17.0168 11.9411 17.0018C12.1956 16.9869 12.4461 17.0697 12.6416 17.2333C12.837 17.3969 12.9627 17.6289 12.9928 17.882L12.9998 17.999V18.929C14.452 18.7187 15.8015 18.0577 16.8579 17.0393C17.9143 16.0209 18.6243 14.6965 18.8878 13.253L18.9288 12.999H17.9998C17.7449 12.9987 17.4997 12.9011 17.3144 12.7262C17.129 12.5512 17.0175 12.3121 17.0026 12.0576C16.9876 11.8032 17.0704 11.5526 17.234 11.3572C17.3976 11.1617 17.6297 11.0361 17.8828 11.006L17.9998 10.999H18.9298C18.7194 9.54681 18.0584 8.19729 17.0401 7.14086C16.0217 6.08444 14.6973 5.37443 13.2538 5.11102L12.9998 5.06902ZM11.9998 10.499C12.3976 10.499 12.7791 10.6571 13.0604 10.9384C13.3417 11.2197 13.4998 11.6012 13.4998 11.999C13.4998 12.3968 13.3417 12.7784 13.0604 13.0597C12.7791 13.341 12.3976 13.499 11.9998 13.499C11.6019 13.499 11.2204 13.341 10.9391 13.0597C10.6578 12.7784 10.4998 12.3968 10.4998 11.999C10.4998 11.6012 10.6578 11.2197 10.9391 10.9384C11.2204 10.6571 11.6019 10.499 11.9998 10.499Z" fill="#383C44"/>
</g>
<defs>
<clipPath id="clip0_901_35669">
<rect width="24" height="24" fill="white"/>
</clipPath>
</defs>
</svg>
