<svg width="36" height="36" viewBox="0 0 36 36" fill="none" xmlns="http://www.w3.org/2000/svg">
<path d="M18.0013 7.465C19.5104 7.465 20.7338 6.24162 20.7338 4.7325C20.7338 3.22338 19.5104 2 18.0013 2C16.4922 2 15.2688 3.22338 15.2688 4.7325C15.2688 6.24162 16.4922 7.465 18.0013 7.465Z" fill="#DADADA"/>
<path d="M17.9992 33.9994C25.7698 33.9994 32.0692 27.7 32.0692 19.9294C32.0692 12.1587 25.7698 5.85938 17.9992 5.85938C10.2286 5.85938 3.9292 12.1587 3.9292 19.9294C3.9292 27.7 10.2286 33.9994 17.9992 33.9994Z" fill="#878787"/>
<path d="M18.0019 30.2752C23.7156 30.2752 28.3475 25.6433 28.3475 19.9296C28.3475 14.2159 23.7156 9.58398 18.0019 9.58398C12.2881 9.58398 7.65625 14.2159 7.65625 19.9296C7.65625 25.6433 12.2881 30.2752 18.0019 30.2752Z" fill="#DADADA"/>
<path d="M18.0002 13.0044C18.5839 13.0044 19.0571 12.5312 19.0571 11.9475C19.0571 11.3638 18.5839 10.8906 18.0002 10.8906C17.4165 10.8906 16.9434 11.3638 16.9434 11.9475C16.9434 12.5312 17.4165 13.0044 18.0002 13.0044Z" fill="#6E6E6E"/>
<path d="M10.0191 20.9869C10.6028 20.9869 11.076 20.5137 11.076 19.93C11.076 19.3463 10.6028 18.873 10.0191 18.873C9.43537 18.873 8.96216 19.3463 8.96216 19.93C8.96216 20.5137 9.43537 20.9869 10.0191 20.9869Z" fill="#6E6E6E"/>
<path d="M18.0002 28.9673C18.5839 28.9673 19.0571 28.4941 19.0571 27.9104C19.0571 27.3267 18.5839 26.8535 18.0002 26.8535C17.4165 26.8535 16.9434 27.3267 16.9434 27.9104C16.9434 28.4941 17.4165 28.9673 18.0002 28.9673Z" fill="#6E6E6E"/>
<path d="M25.9795 20.9869C26.5633 20.9869 27.0365 20.5137 27.0365 19.93C27.0365 19.3463 26.5633 18.873 25.9795 18.873C25.3958 18.873 24.9226 19.3463 24.9226 19.93C24.9226 20.5137 25.3958 20.9869 25.9795 20.9869Z" fill="#6E6E6E"/>
<path d="M22.6601 14.4231L17.2357 17.3357C16.4587 17.7529 15.8217 18.3898 15.4045 19.1668L12.492 24.5912C12.1993 25.1364 12.7924 25.7295 13.3375 25.4368L18.762 22.5242C19.539 22.107 20.1759 21.4701 20.5931 20.6931L23.5057 15.2687C23.7984 14.7236 23.2052 14.1304 22.6601 14.4231Z" fill="#999999"/>
<path d="M12.492 24.5902C12.1993 25.1354 12.7924 25.7285 13.3375 25.4358L18.762 22.5232C19.1505 22.3146 19.504 22.0511 19.8125 21.7426L16.1852 18.1152C15.8767 18.4237 15.6132 18.7772 15.4045 19.1657L12.492 24.5902Z" fill="white"/>
</svg>
