<svg width="76" height="24" viewBox="0 0 76 24" fill="none" xmlns="http://www.w3.org/2000/svg">
<path d="M65.6293 20.0292C64.404 20.0292 63.3388 19.7856 62.4337 19.2982C61.5286 18.7969 60.8254 18.1216 60.3242 17.2722C59.8229 16.4089 59.5723 15.4273 59.5723 14.3273C59.5723 13.4779 59.7115 12.6981 59.99 11.988C60.2685 11.2779 60.6584 10.6652 61.1596 10.15C61.6609 9.6209 62.2527 9.2171 62.935 8.93861C63.6312 8.6462 64.39 8.5 65.2116 8.5C65.9913 8.5 66.7015 8.63924 67.342 8.91773C67.9964 9.19621 68.5603 9.58609 69.0338 10.0874C69.5072 10.5886 69.8692 11.1804 70.1198 11.8627C70.3705 12.545 70.4819 13.2899 70.454 14.0975L70.4331 14.9956H61.5982L61.1179 13.1159H67.7179L67.3629 13.5127V13.095C67.335 12.7469 67.2236 12.4405 67.0287 12.176C66.8477 11.8975 66.604 11.6817 66.2977 11.5285C65.9913 11.3753 65.6432 11.2988 65.2533 11.2988C64.7103 11.2988 64.2438 11.4102 63.854 11.6329C63.478 11.8418 63.1926 12.1551 62.9976 12.5728C62.8027 12.9766 62.7052 13.4779 62.7052 14.0766C62.7052 14.6893 62.8305 15.2254 63.0812 15.6849C63.3457 16.1305 63.7217 16.4786 64.209 16.7292C64.7103 16.9798 65.3021 17.1052 65.9844 17.1052C66.4578 17.1052 66.8755 17.0355 67.2375 16.8963C67.6135 16.7571 68.0173 16.5203 68.4489 16.1862L70.0154 18.4001C69.5838 18.7761 69.1243 19.0824 68.6369 19.3191C68.1496 19.5558 67.6483 19.7299 67.1331 19.8413C66.6318 19.9666 66.1306 20.0292 65.6293 20.0292Z" fill="#737882"/>
<path d="M55.1543 19.8172V8.72656H58.4961V19.8172H55.1543Z" fill="#737882"/>
<path d="M46.322 16.557L45.0897 14.0506L50.2695 8.72461H54.6765L46.322 16.557ZM43.1055 19.8152V4.35938H46.4473V19.8152H43.1055ZM50.6245 19.8152L46.7188 14.7608L49.079 12.9228L54.572 19.8152H50.6245Z" fill="#737882"/>
<path d="M38.0371 19.8191V4.36328H41.3789V19.8191H38.0371Z" fill="#737882"/>
<path d="M29.5964 20.0084C28.6635 20.0084 27.828 19.7647 27.09 19.2773C26.366 18.7761 25.7881 18.0938 25.3565 17.2305C24.9248 16.3533 24.709 15.3646 24.709 14.2646C24.709 13.1368 24.9248 12.1412 25.3565 11.2779C25.7881 10.4146 26.3799 9.73925 27.1318 9.25191C27.8837 8.75064 28.74 8.5 29.7008 8.5C30.2299 8.5 30.7103 8.57658 31.142 8.72975C31.5875 8.88292 31.9774 9.09874 32.3116 9.37723C32.6458 9.64179 32.9312 9.95508 33.1679 10.3171C33.4046 10.6652 33.5787 11.0412 33.6901 11.445L33.0008 11.3614V8.72975H36.3218V19.8204H32.9382V17.1469L33.6901 17.126C33.5787 17.5159 33.3977 17.8849 33.147 18.233C32.8964 18.5811 32.5901 18.8875 32.2281 19.152C31.866 19.4166 31.4622 19.6254 31.0166 19.7786C30.5711 19.9318 30.0976 20.0084 29.5964 20.0084ZM30.5154 17.1887C31.0306 17.1887 31.4761 17.0703 31.8521 16.8336C32.2281 16.5969 32.5205 16.2627 32.7293 15.8311C32.9382 15.3855 33.0426 14.8634 33.0426 14.2646C33.0426 13.6659 32.9382 13.1507 32.7293 12.719C32.5205 12.2735 32.2281 11.9323 31.8521 11.6956C31.4761 11.445 31.0306 11.3197 30.5154 11.3197C30.0141 11.3197 29.5755 11.445 29.1995 11.6956C28.8375 11.9323 28.5521 12.2735 28.3432 12.719C28.1343 13.1507 28.0299 13.6659 28.0299 14.2646C28.0299 14.8634 28.1343 15.3855 28.3432 15.8311C28.5521 16.2627 28.8375 16.5969 29.1995 16.8336C29.5755 17.0703 30.0141 17.1887 30.5154 17.1887Z" fill="#737882"/>
<path d="M9.5287 19.8196L5.14258 5.19922H8.75591L10.949 12.8854C11.0464 13.2335 11.13 13.5886 11.1996 13.9506C11.2831 14.2987 11.3458 14.6329 11.3876 14.9531C11.4433 15.2734 11.4851 15.5728 11.5129 15.8512C11.5407 16.1158 11.5686 16.3386 11.5964 16.5196H11.1369C11.2205 16.0044 11.2901 15.5449 11.3458 15.1411C11.4154 14.7373 11.492 14.3613 11.5756 14.0132C11.6591 13.6512 11.7635 13.2753 11.8889 12.8854L14.061 7.09987H16.9016L19.032 12.8854C19.1991 13.3449 19.3383 13.7765 19.4497 14.1803C19.5611 14.5841 19.6446 14.974 19.7003 15.35C19.7699 15.712 19.8256 16.074 19.8674 16.4361L19.4497 16.4987C19.4775 16.2481 19.4984 16.0183 19.5124 15.8095C19.5263 15.5867 19.5402 15.3778 19.5541 15.1829C19.582 14.974 19.6098 14.7582 19.6377 14.5354C19.6655 14.3126 19.7073 14.0689 19.763 13.8044C19.8187 13.5259 19.8953 13.2126 19.9927 12.8645L22.1649 5.19922H25.6947L21.3086 19.8196H18.5934L15.1262 11.4025L15.5231 11.4442L12.3275 19.8196H9.5287Z" fill="#737882"/>
<circle cx="56.8608" cy="6.06591" r="1.78075" fill="#737882"/>
</svg>
