<svg width="18" height="18" viewBox="0 0 18 18" fill="none" xmlns="http://www.w3.org/2000/svg">
<path d="M11.102 3.45769L16.1277 11.8284C16.8499 13.0307 16.4952 14.6124 15.335 15.3609C14.9458 15.6136 14.4917 15.748 14.0277 15.7479H3.97545C2.6097 15.7479 1.50195 14.6004 1.50195 13.1837C1.50195 12.7044 1.6317 12.2357 1.87545 11.8284L6.90195 3.45769C7.62345 2.25544 9.14895 1.88719 10.3092 2.63569C10.6302 2.84269 10.9017 3.12394 11.102 3.45769ZM9.00195 12.7479C9.20086 12.7479 9.39163 12.6689 9.53228 12.5283C9.67293 12.3876 9.75195 12.1969 9.75195 11.9979C9.75195 11.799 9.67293 11.6083 9.53228 11.4676C9.39163 11.327 9.20086 11.2479 9.00195 11.2479C8.80304 11.2479 8.61227 11.327 8.47162 11.4676C8.33097 11.6083 8.25195 11.799 8.25195 11.9979C8.25195 12.1969 8.33097 12.3876 8.47162 12.5283C8.61227 12.6689 8.80304 12.7479 9.00195 12.7479ZM9.00195 5.99794C8.80304 5.99794 8.61227 6.07696 8.47162 6.21761C8.33097 6.35826 8.25195 6.54903 8.25195 6.74794V9.74794C8.25195 9.94685 8.33097 10.1376 8.47162 10.2783C8.61227 10.4189 8.80304 10.4979 9.00195 10.4979C9.20086 10.4979 9.39163 10.4189 9.53228 10.2783C9.67293 10.1376 9.75195 9.94685 9.75195 9.74794V6.74794C9.75195 6.54903 9.67293 6.35826 9.53228 6.21761C9.39163 6.07696 9.20086 5.99794 9.00195 5.99794Z" fill="#9CA1AB"/>
</svg>
