<svg width="18" height="18" viewBox="0 0 18 18" fill="none" xmlns="http://www.w3.org/2000/svg">
<path fill-rule="evenodd" clip-rule="evenodd" d="M8.9082 15.3896L9.43091 15.9059C9.36231 15.9741 9.2808 16.0282 9.19103 16.0652C9.10127 16.1021 9.00503 16.1211 8.90783 16.1211C8.81064 16.1211 8.7144 16.1021 8.62463 16.0652C8.53487 16.0282 8.45336 15.9741 8.38476 15.9059L8.38033 15.9008L8.36778 15.8883L8.32201 15.8423C8.06176 15.5767 7.80579 15.3071 7.5542 15.0335C6.92252 14.348 6.31767 13.6386 5.74098 12.9071C5.08243 12.0662 4.40912 11.1155 3.89749 10.1766C3.39693 9.25601 3.00195 8.2586 3.00195 7.34601C3.00195 4.02691 5.65386 1.49609 8.9082 1.49609C12.1625 1.49609 14.8145 4.02691 14.8145 7.34601C14.8145 8.2586 14.4195 9.25601 13.9189 10.1759C13.4073 11.1163 12.7347 12.0662 12.0754 12.9071C11.2688 13.9306 10.4072 14.9104 9.4944 15.8423L9.44863 15.8883L9.43607 15.9008L9.43164 15.9052L8.9082 15.3896ZM8.9082 9.53973C9.49562 9.53973 10.059 9.3086 10.4743 8.8972C10.8897 8.4858 11.123 7.92782 11.123 7.34601C11.123 6.7642 10.8897 6.20622 10.4743 5.79482C10.059 5.38341 9.49562 5.15229 8.9082 5.15229C8.32079 5.15229 7.75744 5.38341 7.34207 5.79482C6.92671 6.20622 6.69336 6.7642 6.69336 7.34601C6.69336 7.92782 6.92671 8.4858 7.34207 8.8972C7.75744 9.3086 8.32079 9.53973 8.9082 9.53973Z" fill="#0DAEFF"/>
</svg>
