<svg width="18" height="18" viewBox="0 0 18 18" fill="none" xmlns="http://www.w3.org/2000/svg">
<path d="M11.9216 4.05325C12.4581 4.05325 12.9726 3.84014 13.3519 3.46081C13.7312 3.08147 13.9444 2.56699 13.9444 2.03053C13.9444 1.49407 13.7312 0.979586 13.3519 0.600253C12.9726 0.22092 12.4581 0.0078125 11.9216 0.0078125C11.3852 0.0078125 10.8707 0.22092 10.4914 0.600253C10.112 0.979586 9.89892 1.49407 9.89892 2.03053C9.89892 2.56699 10.112 3.08147 10.4914 3.46081C10.8707 3.84014 11.3852 4.05325 11.9216 4.05325ZM9.34425 4.05235C8.00026 3.86356 4.92843 4.40925 3.66266 7.78314C3.57897 8.00642 3.58741 8.25381 3.68612 8.47087C3.78483 8.68793 3.96573 8.85689 4.18902 8.94058C4.4123 9.02427 4.65969 9.01583 4.87675 8.91712C5.09381 8.81841 5.26277 8.63751 5.34646 8.41422C5.87147 7.0163 6.8172 6.33217 7.66045 6.02742L6.60863 8.72977C6.59125 8.77472 6.57777 8.81967 6.56818 8.86462C6.52509 9.00277 6.516 9.14929 6.54166 9.29172C6.56733 9.43415 6.62701 9.56827 6.71561 9.68269L9.9178 13.8243L10.1255 17.1443C10.1314 17.2631 10.1608 17.3796 10.2121 17.487C10.2634 17.5944 10.3355 17.6905 10.4242 17.7698C10.5129 17.8491 10.6164 17.91 10.7289 17.949C10.8413 17.988 10.9603 18.0042 11.0791 17.9969C11.1978 17.9895 11.314 17.9586 11.4207 17.906C11.5274 17.8534 11.6227 17.7801 11.7009 17.6905C11.7791 17.6008 11.8387 17.4965 11.8763 17.3836C11.9139 17.2707 11.9287 17.1515 11.9198 17.0328L11.6771 13.1609L9.79644 10.7273L11.0307 8.33511L11.1143 8.45558C11.3484 8.79574 11.6925 9.04496 12.0887 9.16135C12.4848 9.27775 12.909 9.25424 13.2899 9.09476L15.1912 8.29826C15.4057 8.20249 15.5741 8.02663 15.6605 7.80828C15.7469 7.58994 15.7445 7.34644 15.6537 7.12987C15.5629 6.9133 15.391 6.74085 15.1747 6.6494C14.9584 6.55795 14.7149 6.55477 14.4963 6.64053L12.595 7.43703L11.1512 5.3379C10.8187 4.76233 10.2879 4.32766 9.65799 4.11528C9.55623 4.08096 9.45048 4.05981 9.34335 4.05235" fill="#49C06B"/>
<path d="M5.80909 12.9973L6.55255 10.793L7.87316 12.501L7.51177 13.5717C7.38476 13.9482 7.13663 14.272 6.80614 14.4926C6.47565 14.7131 6.08142 14.818 5.68503 14.7908L3.09595 14.6137C2.97813 14.6056 2.86304 14.5745 2.75726 14.522C2.65148 14.4695 2.55708 14.3966 2.47945 14.3077C2.40181 14.2187 2.34246 14.1153 2.30479 14.0033C2.26712 13.8914 2.25186 13.7732 2.25989 13.6553C2.26792 13.5375 2.29908 13.4224 2.35158 13.3167C2.40409 13.2109 2.47691 13.1165 2.5659 13.0388C2.65489 12.9612 2.7583 12.9019 2.87022 12.8642C2.98214 12.8265 3.10039 12.8113 3.21821 12.8193L5.80909 12.9973Z" fill="#49C06B"/>
</svg>
