<svg width="19" height="18" viewBox="0 0 19 18" fill="none" xmlns="http://www.w3.org/2000/svg">
<path d="M9.5 15.0006C11.9705 15.0006 14 13.0428 14 10.53C14 9.91318 13.9685 9.25198 13.6265 8.22418C13.2845 7.19638 13.2158 7.06378 12.8543 6.42898C12.6998 7.72408 11.8733 8.26408 11.6633 8.42548C11.6633 8.25748 11.1635 6.40138 10.4054 5.29048C9.6611 4.20058 8.6489 3.48568 8.0555 3.00058C8.0555 3.92158 7.7966 5.29078 7.4255 5.98858C7.0547 6.68608 6.9851 6.71158 6.5216 7.23058C6.0581 7.74958 5.8457 7.91008 5.4581 8.54008C5.0705 9.17008 5 10.0092 5 10.626C5 13.1388 7.0295 15.0006 9.5 15.0006Z" fill="#70CFFF" stroke="#70CFFF" stroke-width="2.45" stroke-linejoin="round"/>
<path d="M8.33105 7.84628C8.3566 7.58385 8.65271 7.40757 8.89355 7.53867L8.94141 7.56894L9.25391 7.8082C9.58282 8.0705 9.95008 8.40257 10.2549 8.82089V8.82187C10.6267 9.33279 10.9035 10.0693 11.0352 10.4957C11.0352 10.4957 11.0366 10.5005 11.0439 10.5074C11.0521 10.5151 11.0644 10.5224 11.0771 10.5269C11.0857 10.53 11.0924 10.5296 11.0967 10.5299C11.2109 10.4214 11.3367 10.2706 11.4287 10.0631C11.4936 9.91645 11.6348 9.83213 11.7666 9.81308C11.9009 9.79376 12.0762 9.83876 12.1582 10.0113C12.2364 10.1759 12.3087 10.3675 12.4277 10.7027C12.6649 11.3709 12.6875 11.8069 12.6875 12.2066C12.6874 13.8945 11.2361 15.1881 9.5 15.1881C7.76946 15.1881 6.3125 13.9592 6.3125 12.2662C6.31252 11.8746 6.35823 11.3023 6.64844 10.86C6.91909 10.4475 7.08078 10.3282 7.37891 10.0152C7.54071 9.84538 7.61821 9.77097 7.69336 9.67929C7.76414 9.59289 7.83204 9.49121 7.9541 9.27597C8.13442 8.9581 8.2809 8.36483 8.33105 7.84628Z" fill="#0DAEFF" stroke="#70CFFF" stroke-width="0.375" stroke-linejoin="round"/>
</svg>
