<svg width="36" height="36" viewBox="0 0 36 36" fill="none" xmlns="http://www.w3.org/2000/svg">
<g clip-path="url(#clip0_897_34553)">
<path d="M32.1797 24.832C32.7136 24.832 33.1465 25.2649 33.1465 25.7988V29.666H23.1562C21.441 29.666 19.8026 30.4852 18.7734 31.8574H17.2266C16.1974 30.4852 14.559 29.666 12.8438 29.666H2.85352V25.7988C2.85352 25.2649 3.28638 24.832 3.82031 24.832H14.1328C15.7124 24.832 17.1174 25.5935 18 26.7687C18.8826 25.5935 20.2876 24.832 21.8672 24.832H32.1797Z" fill="#B7E5FF"/>
<path d="M34.5 29.666C34.5 30.1999 34.0671 30.6328 33.5332 30.6328H23.1562C21.441 30.6328 19.8026 31.452 18.7734 32.8242C18.3867 33.3398 17.6133 33.3398 17.2266 32.8242C16.1974 31.452 14.559 30.6328 12.8438 30.6328H2.4668C1.93287 30.6328 1.5 30.1999 1.5 29.666C1.5 29.1321 1.93287 28.6992 2.4668 28.6992H12.8438C14.772 28.6992 16.6286 29.4645 18 30.7883C19.3714 29.4645 21.228 28.6992 23.1562 28.6992H33.5332C34.0671 28.6992 34.5 29.1321 34.5 29.666ZM23.3508 17.1275L22.5968 12.7315L25.7907 9.61811C26.3645 9.05879 26.0479 8.08426 25.2549 7.96908L20.841 7.32771L18.867 3.328C18.5124 2.60942 17.4877 2.60942 17.1331 3.328L15.1592 7.32771L10.7452 7.96908C9.95225 8.08432 9.6356 9.05879 10.2094 9.61811L13.4033 12.7315L12.6494 17.1275C12.5139 17.9174 13.3429 18.5196 14.0521 18.1467L18 16.0712L21.9479 18.1467C22.6573 18.5196 23.4862 17.9174 23.3508 17.1275ZM32.9319 19.0611L32.5379 16.7638L34.207 15.1368C34.7808 14.5775 34.4642 13.6029 33.6712 13.4878L31.3645 13.1526L30.333 11.0624C29.9784 10.3438 28.9537 10.3438 28.5991 11.0624L27.5675 13.1526L25.2608 13.4878C24.4679 13.603 24.1512 14.5775 24.725 15.1368L26.3942 16.7638L26.0002 19.0611C25.8647 19.8509 26.6937 20.4532 27.4029 20.0803L29.4661 18.9957L31.5292 20.0803C32.2384 20.4532 33.0673 19.8509 32.9319 19.0611ZM9.99995 19.0611L9.60595 16.7638L11.2751 15.1368C11.8489 14.5775 11.5323 13.6029 10.7393 13.4878L8.43264 13.1526L7.40107 11.0624C7.04645 10.3438 6.02177 10.3438 5.66715 11.0624L4.63558 13.1526L2.32893 13.4878C1.53596 13.603 1.21931 14.5775 1.79313 15.1368L3.46228 16.7638L3.06827 19.0611C2.93279 19.8509 3.76179 20.4532 4.47103 20.0803L6.53418 18.9957L8.59732 20.0803C9.3065 20.4532 10.1354 19.8509 9.99995 19.0611Z" fill="url(#paint0_linear_897_34553)"/>
</g>
<defs>
<linearGradient id="paint0_linear_897_34553" x1="18" y1="34.5" x2="18" y2="2.78905" gradientUnits="userSpaceOnUse">
<stop stop-color="#0091DA"/>
<stop offset="0.520314" stop-color="#0DAEFF"/>
<stop offset="1" stop-color="#0DAEFF"/>
</linearGradient>
<clipPath id="clip0_897_34553">
<rect width="33" height="33" fill="white" transform="translate(1.5 1.5)"/>
</clipPath>
</defs>
</svg>
