<svg width="36" height="36" viewBox="0 0 36 36" fill="none" xmlns="http://www.w3.org/2000/svg">
<circle cx="18" cy="18" r="18" fill="#F3F4F6"/>
<path d="M24.3636 20.2584C24.6689 20.2584 24.9712 20.1983 25.2533 20.0814C25.5354 19.9646 25.7917 19.7933 26.0076 19.5774C26.2235 19.3615 26.3948 19.1052 26.5116 18.8231C26.6284 18.5411 26.6886 18.2387 26.6886 17.9334C26.6886 17.6281 26.6284 17.3257 26.5116 17.0437C26.3948 16.7616 26.2235 16.5053 26.0076 16.2894C25.7917 16.0735 25.5354 15.9022 25.2533 15.7854C24.9712 15.6685 24.6689 15.6084 24.3636 15.6084C23.7469 15.6084 23.1556 15.8534 22.7196 16.2894C22.2835 16.7254 22.0386 17.3168 22.0386 17.9334C22.0386 18.55 22.2835 19.1414 22.7196 19.5774C23.1556 20.0134 23.7469 20.2584 24.3636 20.2584Z" fill="#656565"/>
<path d="M14.8756 14.8754L15.3006 14.2504C16.0819 14.2504 16.8569 14.0691 17.5569 13.7316L21.4694 11.8066V24.0691L17.5569 22.1441C16.8547 21.7992 16.0829 21.6196 15.3006 21.6191L14.8756 20.5004V14.8754ZM11.8856 26.1304H13.4944C13.9131 26.1304 14.2506 25.7929 14.2506 25.3741V20.4316H11.1294V25.3741C11.1294 25.7929 11.4669 26.1304 11.8856 26.1304Z" fill="#CACACA"/>
<path d="M23.0437 9.875C22.5349 9.875 22.0468 10.0772 21.687 10.437C21.3272 10.7968 21.125 11.2849 21.125 11.7938V24.075C21.125 24.5839 21.3272 25.0719 21.687 25.4318C22.0468 25.7916 22.5349 25.9937 23.0437 25.9937C23.5526 25.9937 24.0407 25.7916 24.4005 25.4318C24.7603 25.0719 24.9625 24.5839 24.9625 24.075V11.7938C24.9613 11.2852 24.7588 10.7979 24.3992 10.4383C24.0396 10.0787 23.5523 9.87616 23.0437 9.875Z" fill="#DD2E44"/>
<path d="M10.3294 14.25H15.5V21.6125H10.3294C9.73125 21.6125 9.25 21.1438 9.25 20.5688V15.3C9.25 14.7188 9.73125 14.25 10.3294 14.25Z" fill="#DD2E44"/>
</svg>
