<svg width="24" height="24" viewBox="0 0 24 24" fill="none" xmlns="http://www.w3.org/2000/svg">
<path d="M6.57108 16.2627C6.01592 16.3411 5.10206 16.4869 4.49411 15.8227C3.88616 15.1585 3.36043 13.5547 3.12937 12.1214C2.7884 10.0088 3.12677 8.22833 4.08131 7.10829C4.64382 6.44869 5.38201 6.0666 6.21626 6.00576C6.93065 5.95284 7.99813 6.22202 9.02882 7.8054C9.67441 8.79751 10.1655 10.1155 10.3763 11.4209C10.6307 12.9968 10.8786 14.6785 10.0111 15.2815C9.52167 15.6219 9.17032 15.7398 8.33996 15.9302C7.65716 16.0865 7.12667 16.184 6.57108 16.2627ZM5.58365 17.6182L10.2953 16.6823C10.6934 16.6032 11.0128 16.814 11.1607 17.4457C11.6462 19.5191 10.9505 22 8.77137 22C6.70781 22 5.33269 19.7349 5.10811 18.5174C5.00556 17.9653 5.15182 17.7036 5.58365 17.6182ZM15.66 11.9305C14.8296 11.7409 14.4783 11.6222 13.9889 11.2818C13.1213 10.6788 13.3693 8.9971 13.6237 7.42122C13.8344 6.11576 14.3255 4.79614 14.9711 3.80569C16.0009 2.22231 17.0684 1.95314 17.7837 2.00605C18.6171 2.06731 19.3557 2.44857 19.9182 3.10817C20.8736 4.22821 21.212 6.00868 20.8701 8.12124C20.6386 9.55462 20.1146 11.153 19.5032 11.8226C18.8918 12.4922 17.9832 12.341 17.4263 12.2626C16.8694 12.1843 16.3423 12.0864 15.66 11.9305ZM18.4159 13.6181L13.7042 12.6822C13.3061 12.603 12.9867 12.8139 12.8388 13.4456C12.3537 15.519 13.0495 17.9999 15.2286 17.9999C17.2921 17.9999 18.6673 15.7348 18.8918 14.5173C18.9939 13.9652 18.8477 13.7035 18.4159 13.6181Z" fill="#383C44"/>
</svg>
