<svg width="36" height="36" viewBox="0 0 36 36" fill="none" xmlns="http://www.w3.org/2000/svg">
<g clip-path="url(#clip0_897_34552)">
<path d="M33.325 5.84051C33.325 5.49308 32.93 5.29441 32.6502 5.50017C27.0813 9.59773 21.5124 -0.34615 15.9433 4.93325L14.8743 9.77393L15.9433 15.2946C21.4623 10.0625 26.9813 19.7819 32.5003 15.9684C33.0201 15.6094 33.325 15.0119 33.325 14.3802C33.325 11.4141 33.325 8.80707 33.325 5.84051Z" fill="#0DAEFF"/>
<path d="M15.3414 4.33496H14.4001C14.0695 4.33496 13.8015 4.60293 13.8015 4.93357V28.2692H15.9398V4.93357C15.9398 4.60293 15.6718 4.33496 15.3414 4.33496Z" fill="#B7E5FF"/>
<path d="M22.0427 19.3542C21.9091 19.9878 21.4512 20.4549 20.8022 20.5891C20.5758 20.6359 20.4143 20.8367 20.4143 21.073V21.099C20.4143 21.331 20.5773 21.5311 20.8043 21.5784C21.4521 21.7132 21.9091 22.1796 22.0424 22.8123C22.0907 23.0398 22.2837 23.2072 22.5223 23.2072H22.5536C22.7846 23.2072 22.9854 23.0457 23.0322 22.8191C23.1666 22.1704 23.6335 21.7125 24.2666 21.5788C24.4941 21.5308 24.6616 21.3376 24.6616 21.1051V21.0621C24.6616 20.8296 24.4941 20.6364 24.2666 20.5881C23.6335 20.4545 23.1666 19.9968 23.0322 19.3478C22.9854 19.1215 22.7846 18.96 22.5474 18.96H22.5164C22.2839 18.96 22.0905 19.1269 22.0427 19.3542Z" fill="#F5E277"/>
<path d="M6.52755 8.38571C6.39416 9.01909 5.93627 9.4862 5.28728 9.62054C5.06094 9.66737 4.89917 9.86816 4.89917 10.1044V10.1305C4.89917 10.3625 5.06213 10.5623 5.28941 10.6096C5.93722 10.7444 6.39392 11.2111 6.52755 11.8435C6.57556 12.071 6.76879 12.2385 7.00743 12.2385H7.03841C7.26972 12.2385 7.47052 12.0769 7.51735 11.8506C7.65145 11.2016 8.11832 10.744 8.7517 10.6101C8.97923 10.5621 9.14644 10.3689 9.14644 10.1364V10.0933C9.14644 9.86083 8.97923 9.6676 8.7517 9.61959C8.11832 9.48596 7.65145 9.02808 7.51735 8.37933C7.47052 8.15275 7.26972 7.99121 7.0325 7.99121H7.00128C6.76903 7.99121 6.57556 8.15819 6.52755 8.38571Z" fill="#F5E277"/>
<path d="M33.5 32.6638C29.98 28.957 24.348 26.5557 18 26.5557C11.652 26.5557 6.02 28.957 2.5 32.6638H33.5Z" fill="#70CFFF"/>
<path d="M19.2476 26.5876C18.8349 26.5668 18.4191 26.5557 18 26.5557C11.652 26.5557 6.02 28.957 2.5 32.6638H4.99496C8.28246 29.2018 13.4126 26.8792 19.2476 26.5876Z" fill="#0DAEFF"/>
</g>
<defs>
<clipPath id="clip0_897_34552">
<rect width="31" height="31" fill="white" transform="translate(2.5 2.5)"/>
</clipPath>
</defs>
</svg>
