<svg width="36" height="36" viewBox="0 0 36 36" fill="none" xmlns="http://www.w3.org/2000/svg">
<circle cx="18" cy="18" r="18" fill="#F3F4F6"/>
<path d="M13 24.25H24.875V10.5C24.875 10.1685 24.7433 9.85054 24.5089 9.61612C24.2745 9.3817 23.9565 9.25 23.625 9.25H13V24.25Z" fill="#00A6ED"/>
<path d="M11.75 24.875H24.875C24.875 24.875 24.7064 25.1092 24.7064 25.5053C24.7064 25.9013 24.875 26.125 24.875 26.125H11.75V24.875Z" fill="#D0D0D0"/>
<path d="M12.0625 9.25C11.8139 9.25 11.5754 9.34877 11.3996 9.52459C11.2238 9.7004 11.125 9.93886 11.125 10.1875V25.5H11.75C11.75 25.3342 11.8158 25.1753 11.9331 25.0581C12.0503 24.9408 12.2092 24.875 12.375 24.875H13V9.25H12.0625Z" fill="#616161"/>
<path d="M12.0625 24.25C11.8139 24.25 11.5754 24.3488 11.3996 24.5246C11.2238 24.7004 11.125 24.9389 11.125 25.1875V25.8125C11.125 26.0611 11.2238 26.2996 11.3996 26.4754C11.5754 26.6512 11.8139 26.75 12.0625 26.75H23.9375C24.1315 26.7501 24.3207 26.69 24.4791 26.5781C24.6374 26.4662 24.7572 26.3079 24.8219 26.125H12.375C12.2092 26.125 12.0503 26.0592 11.9331 25.9419C11.8158 25.8247 11.75 25.6658 11.75 25.5C11.75 25.3342 11.8158 25.1753 11.9331 25.0581C12.0503 24.9408 12.2092 24.875 12.375 24.875H24.875V24.25H12.0625Z" fill="#0074BA"/>
</svg>
