<svg width="42" height="42" viewBox="0 0 42 42" fill="none" xmlns="http://www.w3.org/2000/svg">
<circle cx="21" cy="21" r="21" fill="#F7F8FA"/>
<path d="M23.3059 17.5412C22.7834 14.6663 19.7563 11.2585 16.8813 11.781C14.0063 12.3036 12.3722 16.5587 12.8947 19.4336C13.4173 22.3085 16.1069 23.8595 18.9818 23.337C21.8568 22.8144 23.8285 20.4161 23.3059 17.5412Z" fill="#A6B3FF"/>
<path d="M29.1046 19.0124C28.347 21.8347 25.5386 23.1589 22.7168 22.4014C19.8945 21.6438 18.1267 19.0913 18.8843 16.2695C19.6418 13.4472 22.9391 10.3002 25.7614 11.0578C26.9161 11.3675 27.8128 12.2834 28.4163 13.4504C28.5731 13.7522 28.7101 14.071 28.8263 14.4004C29.3605 15.9102 29.4719 17.6439 29.1046 19.0124Z" fill="#D1D8FF"/>
<path d="M28.7557 19.9227C23.6483 19.7172 18.541 19.7172 13.4335 19.9227C10.9986 20.0206 9.05867 22.0123 9.0494 24.4492C9.04929 24.4785 9.04929 24.5078 9.0494 24.5371C9.05873 26.974 10.9986 28.9658 13.4335 29.0637C18.5409 29.2691 23.6483 29.2691 28.7557 29.0637C31.1906 28.9658 33.1306 26.974 33.1398 24.5371C33.14 24.5078 33.14 24.4785 33.1398 24.4492C33.1306 22.0124 31.1907 20.0206 28.7557 19.9227Z" fill="#697FFF"/>
<path d="M16.5358 29.1629C15.5016 29.1383 14.4679 29.1053 13.4336 29.0637C10.9989 28.9656 9.05891 26.9739 9.04932 24.537V24.4491C9.05891 22.0122 10.9989 20.0205 13.4336 19.9229C14.469 19.8814 15.5048 19.8478 16.5401 19.8232C14.2722 20.1618 12.5364 22.106 12.5274 24.448V24.5386C12.5365 26.8795 14.2701 28.8222 16.5358 29.1629Z" fill="#526BFF"/>
<path d="M9.49878 22.8904C9.48353 22.8904 9.46818 22.8895 9.45272 22.8877C9.23334 22.8625 9.07591 22.6643 9.10102 22.4449L9.30686 20.6502C9.33202 20.4307 9.53103 20.2734 9.74966 20.2985C9.96904 20.3237 10.1265 20.522 10.1014 20.7413L9.89552 22.5361C9.87212 22.74 9.69917 22.8904 9.49878 22.8904Z" fill="#697FFF"/>
<path d="M10.9114 24.9665C10.8961 24.9665 10.8808 24.9657 10.8653 24.9639C10.6459 24.9387 10.4885 24.7404 10.5136 24.5211L10.7195 22.7263C10.7446 22.5069 10.9436 22.3496 11.1623 22.3747C11.3816 22.3999 11.5391 22.5981 11.514 22.8175L11.3081 24.6122C11.2847 24.8162 11.1118 24.9665 10.9114 24.9665Z" fill="#697FFF"/>
<path d="M11.333 20.9267C11.2969 20.9267 11.2602 20.9217 11.2237 20.9114C11.0113 20.8512 10.8879 20.6302 10.9481 20.4177L11.3493 19.0028C11.4095 18.7903 11.6307 18.667 11.8431 18.7272C12.0555 18.7874 12.1789 19.0084 12.1187 19.2209L11.7175 20.6358C11.6676 20.8118 11.5074 20.9267 11.333 20.9267Z" fill="#697FFF"/>
<path d="M13.9778 20.5048C13.9417 20.5048 13.905 20.4998 13.8685 20.4896C13.6561 20.4293 13.5327 20.2083 13.5929 19.9958L13.9941 18.5809C14.0543 18.3685 14.2754 18.2451 14.4878 18.3053C14.7003 18.3655 14.8237 18.5866 14.7635 18.799L14.3623 20.2139C14.3124 20.3899 14.1521 20.5048 13.9778 20.5048Z" fill="#697FFF"/>
<path d="M9.77685 26.9119C9.64506 26.9119 9.5161 26.8468 9.43976 26.7276C8.9655 25.9869 8.01261 23.7836 7.97231 23.6902C7.88477 23.4875 7.97817 23.2522 8.18092 23.1647C8.38387 23.0771 8.61898 23.1706 8.70646 23.3733C8.71611 23.3956 9.67374 25.6101 10.1132 26.2964C10.2323 26.4824 10.1781 26.7297 9.99217 26.8487C9.92532 26.8915 9.85063 26.9119 9.77685 26.9119Z" fill="#697FFF"/>
<path d="M10.9125 28.5847C10.8699 28.5847 10.8266 28.5778 10.784 28.5634C9.82197 28.2372 8.66325 27.8031 8.65163 27.7987C8.44489 27.7212 8.34013 27.4907 8.41765 27.284C8.49516 27.0772 8.72552 26.9724 8.93242 27.05C8.94388 27.0543 10.091 27.4841 11.0408 27.8061C11.2499 27.877 11.3619 28.104 11.291 28.3132C11.2346 28.4797 11.0791 28.5847 10.9125 28.5847Z" fill="#697FFF"/>
<path d="M11.0511 29.8901C10.8585 29.8901 10.6888 29.7506 10.6568 29.5543C10.6214 29.3364 10.7694 29.131 10.9874 29.0955C11.0042 29.0928 12.6891 28.8194 13.788 28.6818C14.0071 28.6544 14.207 28.8098 14.2344 29.0289C14.2619 29.248 14.1065 29.4479 13.8874 29.4753C12.8027 29.6111 11.1324 29.8821 11.1156 29.8849C11.094 29.8884 11.0724 29.8901 11.0511 29.8901Z" fill="#697FFF"/>
<path d="M15.4815 30.0991C15.2889 30.0991 15.1192 29.9596 15.0873 29.7633C15.0519 29.5454 15.1998 29.34 15.4178 29.3045C15.4346 29.3018 17.1195 29.0284 18.2185 28.8908C18.4376 28.8634 18.6374 29.0188 18.6648 29.2379C18.6923 29.457 18.5369 29.6569 18.3178 29.6843C17.2331 29.8201 15.5628 30.0911 15.5461 30.0939C15.5244 30.0973 15.5028 30.0991 15.4815 30.0991Z" fill="#526BFF"/>
<path d="M32.6999 22.8904C32.4995 22.8904 32.3266 22.74 32.3033 22.5361L32.0974 20.7413C32.0722 20.5219 32.2296 20.3237 32.4491 20.2985C32.6679 20.2735 32.8667 20.4307 32.8919 20.6502L33.0978 22.4449C33.1229 22.6643 32.9655 22.8625 32.7461 22.8877C32.7305 22.8895 32.7152 22.8904 32.6999 22.8904Z" fill="#526BFF"/>
<path d="M30.8622 20.9267C30.6879 20.9267 30.5277 20.8118 30.4777 20.6358L30.0765 19.2209C30.0163 19.0085 30.1397 18.7874 30.3522 18.7272C30.5647 18.6669 30.7856 18.7904 30.8459 19.0028L31.2471 20.4177C31.3073 20.6302 31.1839 20.8513 30.9715 20.9115C30.935 20.9217 30.8983 20.9267 30.8622 20.9267Z" fill="#526BFF"/>
<path d="M28.8462 24.2036C28.6721 24.2136 28.5056 24.1081 28.4457 23.9352L27.9645 22.5454C27.8923 22.3367 28.0028 22.109 28.2115 22.0368C28.4202 21.9645 28.6478 22.0751 28.7201 22.2837L29.2014 23.6735C29.2736 23.8822 29.163 24.1099 28.9544 24.1822C28.9186 24.1946 28.8822 24.2016 28.8462 24.2036Z" fill="#526BFF"/>
<path d="M32.4207 26.9119C32.3469 26.9119 32.2723 26.8915 32.2055 26.8487C32.0196 26.7296 31.9653 26.4824 32.0844 26.2964C32.5239 25.6101 33.4815 23.3956 33.4912 23.3733C33.5787 23.1706 33.814 23.0772 34.0167 23.1647C34.2195 23.2522 34.3129 23.4875 34.2253 23.6902C34.185 23.7836 33.2321 25.9869 32.7579 26.7277C32.6815 26.8468 32.5525 26.9119 32.4207 26.9119Z" fill="#526BFF"/>
<path d="M31.2869 28.5847C31.1203 28.5847 30.9647 28.4797 30.9082 28.3131C30.8373 28.104 30.9494 27.877 31.1585 27.8061C32.1082 27.484 33.2554 27.0543 33.2669 27.05C33.4739 26.9725 33.7042 27.0772 33.7817 27.284C33.8592 27.4907 33.7544 27.7212 33.5477 27.7987C33.5361 27.8031 32.3773 28.2372 31.4152 28.5634C31.3728 28.5779 31.3295 28.5847 31.2869 28.5847Z" fill="#526BFF"/>
<path d="M31.1505 29.8901C31.1292 29.8901 31.1076 29.8884 31.0859 29.8849C31.0691 29.8821 29.3986 29.6111 28.3141 29.4753C28.095 29.4479 27.9396 29.2481 27.967 29.0289C27.9945 28.8097 28.1947 28.6545 28.4134 28.6818C29.5124 28.8194 31.1973 29.0928 31.2141 29.0955C31.4321 29.131 31.5801 29.3364 31.5447 29.5543C31.5128 29.7506 31.343 29.8901 31.1505 29.8901Z" fill="#526BFF"/>
<path d="M25.8851 29.8901C25.8638 29.8901 25.8422 29.8884 25.8205 29.8849C25.8037 29.8821 24.1332 29.6111 23.0487 29.4753C22.8296 29.4479 22.6743 29.2481 22.7016 29.0289C22.7291 28.8097 22.9293 28.6545 23.148 28.6818C24.2471 28.8194 25.9319 29.0928 25.9488 29.0955C26.1667 29.131 26.3147 29.3364 26.2793 29.5543C26.2474 29.7506 26.0777 29.8901 25.8851 29.8901Z" fill="#526BFF"/>
<path d="M17.3305 27.2067C17.31 27.2008 17.2898 27.1932 17.2698 27.1838C17.2545 27.1765 15.7238 26.4544 14.7191 26.0243C14.5161 25.9374 14.422 25.7024 14.5089 25.4993C14.5959 25.2963 14.8313 25.2024 15.0339 25.2891C16.0521 25.725 17.5958 26.4533 17.6112 26.4606C17.8109 26.5549 17.8964 26.7932 17.8021 26.9929C17.7172 27.1727 17.5156 27.2599 17.3305 27.2067Z" fill="#526BFF"/>
<path d="M21.2077 27.1657C21.1872 27.1598 21.167 27.1522 21.147 27.1428C21.1317 27.1355 19.601 26.4134 18.5963 25.9833C18.3933 25.8964 18.2992 25.6614 18.3861 25.4583C18.4731 25.2553 18.7084 25.1614 18.9111 25.2481C19.9293 25.684 21.473 26.4123 21.4884 26.4196C21.6881 26.5139 21.7736 26.7522 21.6793 26.9519C21.5944 27.1316 21.3928 27.2189 21.2077 27.1657Z" fill="#526BFF"/>
<path d="M28.6347 26.9899C28.6142 26.984 28.594 26.9764 28.574 26.967C28.5587 26.9598 27.028 26.2376 26.0233 25.8075C25.8203 25.7206 25.7262 25.4856 25.8131 25.2825C25.9001 25.0795 26.1354 24.9856 26.3381 25.0723C27.3563 25.5082 28.9 26.2365 28.9154 26.2438C29.1151 26.3381 29.2006 26.5764 29.1063 26.7761C29.0215 26.9559 28.8198 27.0431 28.6347 26.9899Z" fill="#526BFF"/>
<path d="M28.8274 14.4002L27.9179 16.1621C27.8592 16.2757 27.7499 16.3546 27.6241 16.3738C27.4978 16.3935 27.3698 16.3519 27.2797 16.2618L26.4625 15.4446L25.4053 17.2252C25.3307 17.351 25.1979 17.4208 25.0614 17.4208C24.9916 17.4208 24.9212 17.4032 24.8573 17.3648C24.6675 17.2524 24.6051 17.0071 24.7176 16.8168L26.0376 14.5937C26.101 14.4876 26.2092 14.4167 26.3319 14.4013C26.4545 14.3858 26.5771 14.4279 26.6645 14.5154L27.4583 15.3092L28.4174 13.4502C28.5741 13.7519 28.7111 14.0707 28.8274 14.4002Z" fill="#697FFF"/>
<path d="M28.6503 20.6066C28.4885 20.6712 28.297 20.6239 28.1854 20.479L27.2881 19.3137C27.1534 19.1387 27.186 18.8877 27.361 18.753C27.536 18.6183 27.787 18.6509 27.9217 18.8258L28.819 19.9911C28.9537 20.1661 28.9211 20.4171 28.7461 20.5519C28.7161 20.5749 28.6838 20.5932 28.6503 20.6066Z" fill="#526BFF"/>
<path d="M29.1552 11.627C29.0702 11.4748 29.0923 11.2789 29.2216 11.1494L30.261 10.109C30.4171 9.95276 30.6703 9.95264 30.8265 10.1087C30.9827 10.2648 30.9828 10.5179 30.8267 10.6742L29.7873 11.7146C29.6312 11.8708 29.3781 11.871 29.2219 11.7149C29.1951 11.6881 29.1728 11.6584 29.1552 11.627Z" fill="#A6B3FF"/>
<path d="M29.9722 12.5867C29.9556 12.4132 30.0546 12.2427 30.225 12.1761L31.5951 11.6415C31.8008 11.5612 32.0326 11.6629 32.1129 11.8686C32.1932 12.0743 32.0915 12.3061 31.8858 12.3864L30.5157 12.9211C30.31 13.0014 30.0782 12.8997 29.9979 12.694C29.9841 12.6587 29.9757 12.6226 29.9722 12.5867Z" fill="#A6B3FF"/>
<path d="M29.2721 8.73186C29.1035 8.68785 28.9194 8.7585 28.8266 8.91619L28.0811 10.1839C27.9691 10.3742 28.0327 10.6193 28.223 10.7312C28.4134 10.8432 28.6584 10.7796 28.7704 10.5893L29.5159 9.32157C29.6279 9.13122 29.5643 8.88617 29.374 8.77423C29.3413 8.75506 29.307 8.74098 29.2721 8.73186Z" fill="#A6B3FF"/>
<path d="M25.6635 20.7364C25.5017 20.801 25.3102 20.7538 25.1986 20.6089L24.3013 19.4436C24.1666 19.2686 24.1992 19.0176 24.3742 18.8829C24.5492 18.7481 24.8002 18.7808 24.9349 18.9557L25.8322 20.121C25.9669 20.296 25.9343 20.547 25.7593 20.6817C25.7294 20.7049 25.6971 20.7231 25.6635 20.7364Z" fill="#526BFF"/>
<path d="M16.7312 20.672C16.8931 20.7366 17.0845 20.6894 17.1961 20.5444L18.0934 19.3791C18.2281 19.2042 18.1955 18.9531 18.0206 18.8184C17.8455 18.6837 17.5945 18.7163 17.4598 18.8913L16.5625 20.0566C16.4278 20.2315 16.4604 20.4826 16.6354 20.6173C16.6654 20.6404 16.6977 20.6586 16.7312 20.672Z" fill="#526BFF"/>
</svg>
